%TF.GenerationSoftware,KiCad,Pcbnew,(5.1.9-0-10_14)*%
%TF.CreationDate,2021-09-12T17:19:37+02:00*%
%TF.ProjectId,v0_miniAB_pancake_board,76305f6d-696e-4694-9142-5f70616e6361,rev?*%
%TF.SameCoordinates,Original*%
%TF.FileFunction,Soldermask,Top*%
%TF.FilePolarity,Negative*%
%FSLAX46Y46*%
G04 Gerber Fmt 4.6, Leading zero omitted, Abs format (unit mm)*
G04 Created by KiCad (PCBNEW (5.1.9-0-10_14)) date 2021-09-12 17:19:37*
%MOMM*%
%LPD*%
G01*
G04 APERTURE LIST*
%ADD10C,0.100000*%
%ADD11R,1.000000X1.500000*%
%ADD12C,1.500000*%
%ADD13C,3.000000*%
%ADD14O,1.750000X1.200000*%
%ADD15O,1.200000X1.750000*%
G04 APERTURE END LIST*
D10*
%TO.C,J11*%
G36*
X102700000Y-86750000D02*
G01*
X102150000Y-86750000D01*
X102150000Y-86749398D01*
X102125466Y-86749398D01*
X102076635Y-86744588D01*
X102028510Y-86735016D01*
X101981555Y-86720772D01*
X101936222Y-86701995D01*
X101892949Y-86678864D01*
X101852150Y-86651604D01*
X101814221Y-86620476D01*
X101779524Y-86585779D01*
X101748396Y-86547850D01*
X101721136Y-86507051D01*
X101698005Y-86463778D01*
X101679228Y-86418445D01*
X101664984Y-86371490D01*
X101655412Y-86323365D01*
X101650602Y-86274534D01*
X101650602Y-86250000D01*
X101650000Y-86250000D01*
X101650000Y-85750000D01*
X101650602Y-85750000D01*
X101650602Y-85725466D01*
X101655412Y-85676635D01*
X101664984Y-85628510D01*
X101679228Y-85581555D01*
X101698005Y-85536222D01*
X101721136Y-85492949D01*
X101748396Y-85452150D01*
X101779524Y-85414221D01*
X101814221Y-85379524D01*
X101852150Y-85348396D01*
X101892949Y-85321136D01*
X101936222Y-85298005D01*
X101981555Y-85279228D01*
X102028510Y-85264984D01*
X102076635Y-85255412D01*
X102125466Y-85250602D01*
X102150000Y-85250602D01*
X102150000Y-85250000D01*
X102700000Y-85250000D01*
X102700000Y-86750000D01*
G37*
D11*
X103450000Y-86000000D03*
D10*
G36*
X104750000Y-85250602D02*
G01*
X104774534Y-85250602D01*
X104823365Y-85255412D01*
X104871490Y-85264984D01*
X104918445Y-85279228D01*
X104963778Y-85298005D01*
X105007051Y-85321136D01*
X105047850Y-85348396D01*
X105085779Y-85379524D01*
X105120476Y-85414221D01*
X105151604Y-85452150D01*
X105178864Y-85492949D01*
X105201995Y-85536222D01*
X105220772Y-85581555D01*
X105235016Y-85628510D01*
X105244588Y-85676635D01*
X105249398Y-85725466D01*
X105249398Y-85750000D01*
X105250000Y-85750000D01*
X105250000Y-86250000D01*
X105249398Y-86250000D01*
X105249398Y-86274534D01*
X105244588Y-86323365D01*
X105235016Y-86371490D01*
X105220772Y-86418445D01*
X105201995Y-86463778D01*
X105178864Y-86507051D01*
X105151604Y-86547850D01*
X105120476Y-86585779D01*
X105085779Y-86620476D01*
X105047850Y-86651604D01*
X105007051Y-86678864D01*
X104963778Y-86701995D01*
X104918445Y-86720772D01*
X104871490Y-86735016D01*
X104823365Y-86744588D01*
X104774534Y-86749398D01*
X104750000Y-86749398D01*
X104750000Y-86750000D01*
X104200000Y-86750000D01*
X104200000Y-85250000D01*
X104750000Y-85250000D01*
X104750000Y-85250602D01*
G37*
%TD*%
%TO.C,J10*%
G36*
X95750000Y-86750000D02*
G01*
X95200000Y-86750000D01*
X95200000Y-86749398D01*
X95175466Y-86749398D01*
X95126635Y-86744588D01*
X95078510Y-86735016D01*
X95031555Y-86720772D01*
X94986222Y-86701995D01*
X94942949Y-86678864D01*
X94902150Y-86651604D01*
X94864221Y-86620476D01*
X94829524Y-86585779D01*
X94798396Y-86547850D01*
X94771136Y-86507051D01*
X94748005Y-86463778D01*
X94729228Y-86418445D01*
X94714984Y-86371490D01*
X94705412Y-86323365D01*
X94700602Y-86274534D01*
X94700602Y-86250000D01*
X94700000Y-86250000D01*
X94700000Y-85750000D01*
X94700602Y-85750000D01*
X94700602Y-85725466D01*
X94705412Y-85676635D01*
X94714984Y-85628510D01*
X94729228Y-85581555D01*
X94748005Y-85536222D01*
X94771136Y-85492949D01*
X94798396Y-85452150D01*
X94829524Y-85414221D01*
X94864221Y-85379524D01*
X94902150Y-85348396D01*
X94942949Y-85321136D01*
X94986222Y-85298005D01*
X95031555Y-85279228D01*
X95078510Y-85264984D01*
X95126635Y-85255412D01*
X95175466Y-85250602D01*
X95200000Y-85250602D01*
X95200000Y-85250000D01*
X95750000Y-85250000D01*
X95750000Y-86750000D01*
G37*
D11*
X96500000Y-86000000D03*
D10*
G36*
X97800000Y-85250602D02*
G01*
X97824534Y-85250602D01*
X97873365Y-85255412D01*
X97921490Y-85264984D01*
X97968445Y-85279228D01*
X98013778Y-85298005D01*
X98057051Y-85321136D01*
X98097850Y-85348396D01*
X98135779Y-85379524D01*
X98170476Y-85414221D01*
X98201604Y-85452150D01*
X98228864Y-85492949D01*
X98251995Y-85536222D01*
X98270772Y-85581555D01*
X98285016Y-85628510D01*
X98294588Y-85676635D01*
X98299398Y-85725466D01*
X98299398Y-85750000D01*
X98300000Y-85750000D01*
X98300000Y-86250000D01*
X98299398Y-86250000D01*
X98299398Y-86274534D01*
X98294588Y-86323365D01*
X98285016Y-86371490D01*
X98270772Y-86418445D01*
X98251995Y-86463778D01*
X98228864Y-86507051D01*
X98201604Y-86547850D01*
X98170476Y-86585779D01*
X98135779Y-86620476D01*
X98097850Y-86651604D01*
X98057051Y-86678864D01*
X98013778Y-86701995D01*
X97968445Y-86720772D01*
X97921490Y-86735016D01*
X97873365Y-86744588D01*
X97824534Y-86749398D01*
X97800000Y-86749398D01*
X97800000Y-86750000D01*
X97250000Y-86750000D01*
X97250000Y-85250000D01*
X97800000Y-85250000D01*
X97800000Y-85250602D01*
G37*
%TD*%
D12*
%TO.C,J9*%
X108880000Y-103990000D03*
X105880000Y-103990000D03*
X102880000Y-103990000D03*
X99880000Y-103990000D03*
X96880000Y-103990000D03*
X93880000Y-103990000D03*
X90880000Y-103990000D03*
X108880000Y-100990000D03*
X105880000Y-100990000D03*
X102880000Y-100990000D03*
X99880000Y-100990000D03*
X96880000Y-100990000D03*
X93880000Y-100990000D03*
G36*
G01*
X90130000Y-101490000D02*
X90130000Y-100490000D01*
G75*
G02*
X90380000Y-100240000I250000J0D01*
G01*
X91380000Y-100240000D01*
G75*
G02*
X91630000Y-100490000I0J-250000D01*
G01*
X91630000Y-101490000D01*
G75*
G02*
X91380000Y-101740000I-250000J0D01*
G01*
X90380000Y-101740000D01*
G75*
G02*
X90130000Y-101490000I0J250000D01*
G01*
G37*
D13*
X106740000Y-96670000D03*
X93040000Y-96670000D03*
%TD*%
D14*
%TO.C,J8*%
X83350000Y-96040000D03*
X83350000Y-98040000D03*
G36*
G01*
X83975001Y-100640000D02*
X82724999Y-100640000D01*
G75*
G02*
X82475000Y-100390001I0J249999D01*
G01*
X82475000Y-99689999D01*
G75*
G02*
X82724999Y-99440000I249999J0D01*
G01*
X83975001Y-99440000D01*
G75*
G02*
X84225000Y-99689999I0J-249999D01*
G01*
X84225000Y-100390001D01*
G75*
G02*
X83975001Y-100640000I-249999J0D01*
G01*
G37*
%TD*%
%TO.C,J7*%
X116450000Y-100000000D03*
X116450000Y-98000000D03*
G36*
G01*
X115824999Y-95400000D02*
X117075001Y-95400000D01*
G75*
G02*
X117325000Y-95649999I0J-249999D01*
G01*
X117325000Y-96350001D01*
G75*
G02*
X117075001Y-96600000I-249999J0D01*
G01*
X115824999Y-96600000D01*
G75*
G02*
X115575000Y-96350001I0J249999D01*
G01*
X115575000Y-95649999D01*
G75*
G02*
X115824999Y-95400000I249999J0D01*
G01*
G37*
%TD*%
D15*
%TO.C,J6*%
X109710000Y-108680000D03*
G36*
G01*
X112310000Y-108054999D02*
X112310000Y-109305001D01*
G75*
G02*
X112060001Y-109555000I-249999J0D01*
G01*
X111359999Y-109555000D01*
G75*
G02*
X111110000Y-109305001I0J249999D01*
G01*
X111110000Y-108054999D01*
G75*
G02*
X111359999Y-107805000I249999J0D01*
G01*
X112060001Y-107805000D01*
G75*
G02*
X112310000Y-108054999I0J-249999D01*
G01*
G37*
%TD*%
%TO.C,J5*%
G36*
G01*
X122963929Y-106669022D02*
X122422285Y-106573516D01*
G75*
G02*
X121935589Y-105878442I104189J590885D01*
G01*
X121935589Y-105878442D01*
G75*
G02*
X122630663Y-105391746I590885J-104189D01*
G01*
X123172307Y-105487252D01*
G75*
G02*
X123659003Y-106182326I-104189J-590885D01*
G01*
X123659003Y-106182326D01*
G75*
G02*
X122963929Y-106669022I-590885J104189D01*
G01*
G37*
G36*
G01*
X122961317Y-108699415D02*
X121730305Y-108482354D01*
G75*
G02*
X121527516Y-108192741I43412J246201D01*
G01*
X121649070Y-107503374D01*
G75*
G02*
X121938683Y-107300585I246201J-43412D01*
G01*
X123169695Y-107517646D01*
G75*
G02*
X123372484Y-107807259I-43412J-246201D01*
G01*
X123250930Y-108496626D01*
G75*
G02*
X122961317Y-108699415I-246201J43412D01*
G01*
G37*
%TD*%
%TO.C,J4*%
G36*
G01*
X77162285Y-107456484D02*
X77703929Y-107360978D01*
G75*
G02*
X78399003Y-107847674I104189J-590885D01*
G01*
X78399003Y-107847674D01*
G75*
G02*
X77912307Y-108542748I-590885J-104189D01*
G01*
X77370663Y-108638254D01*
G75*
G02*
X76675589Y-108151558I-104189J590885D01*
G01*
X76675589Y-108151558D01*
G75*
G02*
X77162285Y-107456484I590885J104189D01*
G01*
G37*
G36*
G01*
X76470305Y-105547646D02*
X77701317Y-105330585D01*
G75*
G02*
X77990930Y-105533374I43412J-246201D01*
G01*
X78112484Y-106222741D01*
G75*
G02*
X77909695Y-106512354I-246201J-43412D01*
G01*
X76678683Y-106729415D01*
G75*
G02*
X76389070Y-106526626I-43412J246201D01*
G01*
X76267516Y-105837259D01*
G75*
G02*
X76470305Y-105547646I246201J43412D01*
G01*
G37*
%TD*%
D14*
%TO.C,J3*%
X103420000Y-111400000D03*
G36*
G01*
X104045001Y-114000000D02*
X102794999Y-114000000D01*
G75*
G02*
X102545000Y-113750001I0J249999D01*
G01*
X102545000Y-113049999D01*
G75*
G02*
X102794999Y-112800000I249999J0D01*
G01*
X104045001Y-112800000D01*
G75*
G02*
X104295000Y-113049999I0J-249999D01*
G01*
X104295000Y-113750001D01*
G75*
G02*
X104045001Y-114000000I-249999J0D01*
G01*
G37*
%TD*%
D12*
%TO.C,J2*%
X99204882Y-111302427D03*
G36*
G01*
X96607707Y-111561625D02*
X95626080Y-111370816D01*
G75*
G02*
X95428375Y-111077707I47702J245407D01*
G01*
X95619184Y-110096080D01*
G75*
G02*
X95912293Y-109898375I245407J-47702D01*
G01*
X96893920Y-110089184D01*
G75*
G02*
X97091625Y-110382293I-47702J-245407D01*
G01*
X96900816Y-111363920D01*
G75*
G02*
X96607707Y-111561625I-245407J47702D01*
G01*
G37*
D13*
X92019371Y-109905705D03*
%TD*%
%TO.C,J1*%
G36*
G01*
X83117169Y-86553923D02*
X83506077Y-86942831D01*
G75*
G02*
X83506077Y-87791359I-424264J-424264D01*
G01*
X83506077Y-87791359D01*
G75*
G02*
X82657549Y-87791359I-424264J424264D01*
G01*
X82268641Y-87402451D01*
G75*
G02*
X82268641Y-86553923I424264J424264D01*
G01*
X82268641Y-86553923D01*
G75*
G02*
X83117169Y-86553923I424264J-424264D01*
G01*
G37*
G36*
G01*
X84531383Y-85139709D02*
X84920291Y-85528617D01*
G75*
G02*
X84920291Y-86377145I-424264J-424264D01*
G01*
X84920291Y-86377145D01*
G75*
G02*
X84071763Y-86377145I-424264J424264D01*
G01*
X83682855Y-85988237D01*
G75*
G02*
X83682855Y-85139709I424264J424264D01*
G01*
X83682855Y-85139709D01*
G75*
G02*
X84531383Y-85139709I424264J-424264D01*
G01*
G37*
G36*
G01*
X85945596Y-83725496D02*
X86334504Y-84114404D01*
G75*
G02*
X86334504Y-84962932I-424264J-424264D01*
G01*
X86334504Y-84962932D01*
G75*
G02*
X85485976Y-84962932I-424264J424264D01*
G01*
X85097068Y-84574024D01*
G75*
G02*
X85097068Y-83725496I424264J424264D01*
G01*
X85097068Y-83725496D01*
G75*
G02*
X85945596Y-83725496I424264J-424264D01*
G01*
G37*
G36*
G01*
X87112322Y-82063793D02*
X87996207Y-82947678D01*
G75*
G02*
X87996207Y-83301230I-176776J-176776D01*
G01*
X87501230Y-83796207D01*
G75*
G02*
X87147678Y-83796207I-176776J176776D01*
G01*
X86263793Y-82912322D01*
G75*
G02*
X86263793Y-82558770I176776J176776D01*
G01*
X86758770Y-82063793D01*
G75*
G02*
X87112322Y-82063793I176776J-176776D01*
G01*
G37*
%TD*%
M02*
