M48
; DRILL file {KiCad (5.1.9-0-10_14)} date Sunday, September 12, 2021 at 05:27:02 PM
; FORMAT={-:-/ absolute / metric / decimal}
; #@! TF.CreationDate,2021-09-12T17:27:02+02:00
; #@! TF.GenerationSoftware,Kicad,Pcbnew,(5.1.9-0-10_14)
; #@! TF.FileFunction,Plated,1,2,PTH
FMAT,2
METRIC
T1C0.400
T2C0.750
T3C1.020
%
G90
G05
T1
X76.35Y-103.1
X81.8Y-108.7
X85.3Y-91.95
X86.1Y-103.95
X87.55Y-108.7
X88.0Y-97.4
X90.8Y-84.6
X93.0Y-86.4
X94.45Y-112.9
X94.45Y-115.85
X95.2Y-83.7
X96.5Y-88.375
X98.0Y-89.2
X99.5Y-90.4
X100.2Y-85.2
X100.8Y-112.8
X101.75Y-91.05
X102.1Y-83.7
X102.859Y-89.638
X103.6Y-106.75
X105.4Y-115.9
X105.6Y-107.4
X106.5Y-88.95
X108.1Y-112.5
X108.55Y-85.5
X110.4Y-105.4
X113.9Y-108.1
X116.6Y-93.8
X119.45Y-105.8
X119.45Y-109.2
T2
X77.19Y-106.03
X77.537Y-108.0
X82.887Y-87.173
X83.35Y-96.04
X83.35Y-98.04
X83.35Y-100.04
X84.302Y-85.758
X85.716Y-84.344
X87.13Y-82.93
X103.42Y-111.4
X103.42Y-113.4
X109.71Y-108.68
X111.71Y-108.68
X116.45Y-96.0
X116.45Y-98.0
X116.45Y-100.0
X122.45Y-108.0
X122.797Y-106.03
T3
X90.88Y-100.99
X90.88Y-103.99
X93.88Y-100.99
X93.88Y-103.99
X96.26Y-110.73
X96.88Y-100.99
X96.88Y-103.99
X99.205Y-111.302
X99.88Y-100.99
X99.88Y-103.99
X102.88Y-100.99
X102.88Y-103.99
X105.88Y-100.99
X105.88Y-103.99
X108.88Y-100.99
X108.88Y-103.99
T0
M30
