%FSLAX45Y45*%
G04 Gerber Fmt 4.5, Leading zero omitted, Abs format (unit mm)*
G04 Created by KiCad (PCBNEW (5.1.9-0-10_14)) date 2021-09-12 17:27:03*
%MOMM*%
%LPD*%
G01*
G04 APERTURE LIST*
%TA.AperFunction,Profile*%
%ADD10C,0.200000*%
%TD*%
%ADD11C,0.200000*%
%ADD12C,0.300000*%
G04 APERTURE END LIST*
D10*
X7727861Y-11099027D02*
G75*
G02*
X7580000Y-11000000I-26782J119912D01*
G01*
X12420000Y-11020000D02*
G75*
G02*
X12304542Y-11100949I-100885J21078D01*
G01*
X12420000Y-11020000D02*
X12520000Y-10400000D01*
X7580000Y-11000000D02*
X7481529Y-10399757D01*
X8090811Y-8797919D02*
X8107000Y-8815000D01*
X8274130Y-8981238D02*
X8107000Y-8815000D01*
X9253190Y-8362235D02*
G75*
G02*
X11516467Y-9030295I746811J-1637765D01*
G01*
X8090811Y-8797919D02*
G75*
G02*
X8090811Y-8656498I70711J70711D01*
G01*
X8656497Y-8090812D02*
G75*
G02*
X8797918Y-8090812I70711J-70711D01*
G01*
X8274130Y-8981238D02*
G75*
G02*
X8255623Y-9280431I-141421J-141421D01*
G01*
X9253190Y-8362235D02*
G75*
G02*
X9028789Y-8321682I-82979J181974D01*
G01*
X8656497Y-8090812D02*
X8090811Y-8656498D01*
X9028789Y-8321682D02*
X8797918Y-8090812D01*
X11816778Y-9331839D02*
G75*
G02*
X11516467Y-9030295I542171J840268D01*
G01*
X8255623Y-9280431D02*
G75*
G02*
X8183222Y-9331839I-614572J788861D01*
G01*
X11388501Y-11145455D02*
G75*
G02*
X11697056Y-11000000I308556J-254545D01*
G01*
X8302944Y-11000000D02*
G75*
G02*
X8611499Y-11145455I0J-400000D01*
G01*
X11388501Y-11145455D02*
G75*
G02*
X8611499Y-11145455I-1388501J1145455D01*
G01*
X11697056Y-11000000D02*
X12304542Y-11100949D01*
X7727861Y-11099027D02*
X8302944Y-11000000D01*
X7450000Y-10000000D02*
G75*
G02*
X7613903Y-9699184I358000J0D01*
G01*
X12387196Y-9697482D02*
G75*
G02*
X12551470Y-10019999I-195196J-302518D01*
G01*
X7481529Y-10399757D02*
G75*
G02*
X7450000Y-10000000I2518471J399757D01*
G01*
X12551470Y-10019999D02*
G75*
G02*
X12520000Y-10400000I-2551470J19999D01*
G01*
X11816778Y-9331839D02*
X12387196Y-9697482D01*
X7613903Y-9699184D02*
X8183222Y-9331839D01*
X12342000Y-10000000D02*
G75*
G03*
X12342000Y-10000000I-150000J0D01*
G01*
X7958000Y-10000000D02*
G75*
G03*
X7958000Y-10000000I-150000J0D01*
G01*
D11*
X9051937Y-10840571D02*
X9351937Y-11140571D01*
X9351937Y-10840571D02*
X9051937Y-11140571D01*
X9154000Y-9517000D02*
X9454000Y-9817000D01*
X9454000Y-9517000D02*
X9154000Y-9817000D01*
X10524000Y-9517000D02*
X10824000Y-9817000D01*
X10824000Y-9517000D02*
X10524000Y-9817000D01*
D12*
X7726428Y-12275714D02*
X7726428Y-11975714D01*
X7797857Y-11975714D01*
X7840714Y-11990000D01*
X7869286Y-12018571D01*
X7883571Y-12047143D01*
X7897857Y-12104286D01*
X7897857Y-12147143D01*
X7883571Y-12204286D01*
X7869286Y-12232857D01*
X7840714Y-12261429D01*
X7797857Y-12275714D01*
X7726428Y-12275714D01*
X8026428Y-12275714D02*
X8026428Y-12075714D01*
X8026428Y-12132857D02*
X8040714Y-12104286D01*
X8055000Y-12090000D01*
X8083571Y-12075714D01*
X8112143Y-12075714D01*
X8212143Y-12275714D02*
X8212143Y-12075714D01*
X8212143Y-11975714D02*
X8197857Y-11990000D01*
X8212143Y-12004286D01*
X8226428Y-11990000D01*
X8212143Y-11975714D01*
X8212143Y-12004286D01*
X8397857Y-12275714D02*
X8369286Y-12261429D01*
X8355000Y-12232857D01*
X8355000Y-11975714D01*
X8555000Y-12275714D02*
X8526428Y-12261429D01*
X8512143Y-12232857D01*
X8512143Y-11975714D01*
X8897857Y-12275714D02*
X8897857Y-11975714D01*
X8997857Y-12190000D01*
X9097857Y-11975714D01*
X9097857Y-12275714D01*
X9369286Y-12275714D02*
X9369286Y-12118571D01*
X9355000Y-12090000D01*
X9326428Y-12075714D01*
X9269286Y-12075714D01*
X9240714Y-12090000D01*
X9369286Y-12261429D02*
X9340714Y-12275714D01*
X9269286Y-12275714D01*
X9240714Y-12261429D01*
X9226428Y-12232857D01*
X9226428Y-12204286D01*
X9240714Y-12175714D01*
X9269286Y-12161429D01*
X9340714Y-12161429D01*
X9369286Y-12147143D01*
X9512143Y-12075714D02*
X9512143Y-12375714D01*
X9512143Y-12090000D02*
X9540714Y-12075714D01*
X9597857Y-12075714D01*
X9626428Y-12090000D01*
X9640714Y-12104286D01*
X9655000Y-12132857D01*
X9655000Y-12218571D01*
X9640714Y-12247143D01*
X9626428Y-12261429D01*
X9597857Y-12275714D01*
X9540714Y-12275714D01*
X9512143Y-12261429D01*
X9783571Y-12247143D02*
X9797857Y-12261429D01*
X9783571Y-12275714D01*
X9769286Y-12261429D01*
X9783571Y-12247143D01*
X9783571Y-12275714D01*
X9783571Y-12090000D02*
X9797857Y-12104286D01*
X9783571Y-12118571D01*
X9769286Y-12104286D01*
X9783571Y-12090000D01*
X9783571Y-12118571D01*
X7140000Y-12620000D02*
X7440000Y-12920000D01*
X7440000Y-12620000D02*
X7140000Y-12920000D01*
X7697857Y-12605714D02*
X7883571Y-12605714D01*
X7783571Y-12720000D01*
X7826428Y-12720000D01*
X7855000Y-12734286D01*
X7869286Y-12748571D01*
X7883571Y-12777143D01*
X7883571Y-12848571D01*
X7869286Y-12877143D01*
X7855000Y-12891429D01*
X7826428Y-12905714D01*
X7740714Y-12905714D01*
X7712143Y-12891429D01*
X7697857Y-12877143D01*
X8012143Y-12877143D02*
X8026428Y-12891429D01*
X8012143Y-12905714D01*
X7997857Y-12891429D01*
X8012143Y-12877143D01*
X8012143Y-12905714D01*
X8212143Y-12605714D02*
X8240714Y-12605714D01*
X8269286Y-12620000D01*
X8283571Y-12634286D01*
X8297857Y-12662857D01*
X8312143Y-12720000D01*
X8312143Y-12791429D01*
X8297857Y-12848571D01*
X8283571Y-12877143D01*
X8269286Y-12891429D01*
X8240714Y-12905714D01*
X8212143Y-12905714D01*
X8183571Y-12891429D01*
X8169286Y-12877143D01*
X8155000Y-12848571D01*
X8140714Y-12791429D01*
X8140714Y-12720000D01*
X8155000Y-12662857D01*
X8169286Y-12634286D01*
X8183571Y-12620000D01*
X8212143Y-12605714D01*
X8497857Y-12605714D02*
X8526428Y-12605714D01*
X8555000Y-12620000D01*
X8569286Y-12634286D01*
X8583571Y-12662857D01*
X8597857Y-12720000D01*
X8597857Y-12791429D01*
X8583571Y-12848571D01*
X8569286Y-12877143D01*
X8555000Y-12891429D01*
X8526428Y-12905714D01*
X8497857Y-12905714D01*
X8469286Y-12891429D01*
X8455000Y-12877143D01*
X8440714Y-12848571D01*
X8426428Y-12791429D01*
X8426428Y-12720000D01*
X8440714Y-12662857D01*
X8455000Y-12634286D01*
X8469286Y-12620000D01*
X8497857Y-12605714D01*
X8726428Y-12905714D02*
X8726428Y-12705714D01*
X8726428Y-12734286D02*
X8740714Y-12720000D01*
X8769286Y-12705714D01*
X8812143Y-12705714D01*
X8840714Y-12720000D01*
X8855000Y-12748571D01*
X8855000Y-12905714D01*
X8855000Y-12748571D02*
X8869286Y-12720000D01*
X8897857Y-12705714D01*
X8940714Y-12705714D01*
X8969286Y-12720000D01*
X8983571Y-12748571D01*
X8983571Y-12905714D01*
X9126428Y-12905714D02*
X9126428Y-12705714D01*
X9126428Y-12734286D02*
X9140714Y-12720000D01*
X9169286Y-12705714D01*
X9212143Y-12705714D01*
X9240714Y-12720000D01*
X9255000Y-12748571D01*
X9255000Y-12905714D01*
X9255000Y-12748571D02*
X9269286Y-12720000D01*
X9297857Y-12705714D01*
X9340714Y-12705714D01*
X9369286Y-12720000D01*
X9383571Y-12748571D01*
X9383571Y-12905714D01*
X9969286Y-12591429D02*
X9712143Y-12977143D01*
X10355000Y-12605714D02*
X10383571Y-12605714D01*
X10412143Y-12620000D01*
X10426428Y-12634286D01*
X10440714Y-12662857D01*
X10455000Y-12720000D01*
X10455000Y-12791429D01*
X10440714Y-12848571D01*
X10426428Y-12877143D01*
X10412143Y-12891429D01*
X10383571Y-12905714D01*
X10355000Y-12905714D01*
X10326428Y-12891429D01*
X10312143Y-12877143D01*
X10297857Y-12848571D01*
X10283571Y-12791429D01*
X10283571Y-12720000D01*
X10297857Y-12662857D01*
X10312143Y-12634286D01*
X10326428Y-12620000D01*
X10355000Y-12605714D01*
X10583571Y-12877143D02*
X10597857Y-12891429D01*
X10583571Y-12905714D01*
X10569286Y-12891429D01*
X10583571Y-12877143D01*
X10583571Y-12905714D01*
X10883571Y-12905714D02*
X10712143Y-12905714D01*
X10797857Y-12905714D02*
X10797857Y-12605714D01*
X10769286Y-12648571D01*
X10740714Y-12677143D01*
X10712143Y-12691429D01*
X11169286Y-12905714D02*
X10997857Y-12905714D01*
X11083571Y-12905714D02*
X11083571Y-12605714D01*
X11055000Y-12648571D01*
X11026428Y-12677143D01*
X10997857Y-12691429D01*
X11340714Y-12734286D02*
X11312143Y-12720000D01*
X11297857Y-12705714D01*
X11283571Y-12677143D01*
X11283571Y-12662857D01*
X11297857Y-12634286D01*
X11312143Y-12620000D01*
X11340714Y-12605714D01*
X11397857Y-12605714D01*
X11426428Y-12620000D01*
X11440714Y-12634286D01*
X11455000Y-12662857D01*
X11455000Y-12677143D01*
X11440714Y-12705714D01*
X11426428Y-12720000D01*
X11397857Y-12734286D01*
X11340714Y-12734286D01*
X11312143Y-12748571D01*
X11297857Y-12762857D01*
X11283571Y-12791429D01*
X11283571Y-12848571D01*
X11297857Y-12877143D01*
X11312143Y-12891429D01*
X11340714Y-12905714D01*
X11397857Y-12905714D01*
X11426428Y-12891429D01*
X11440714Y-12877143D01*
X11455000Y-12848571D01*
X11455000Y-12791429D01*
X11440714Y-12762857D01*
X11426428Y-12748571D01*
X11397857Y-12734286D01*
X11569286Y-12605714D02*
X11569286Y-12662857D01*
X11683571Y-12605714D02*
X11683571Y-12662857D01*
X12126428Y-13020000D02*
X12112143Y-13005714D01*
X12083571Y-12962857D01*
X12069286Y-12934286D01*
X12055000Y-12891429D01*
X12040714Y-12820000D01*
X12040714Y-12762857D01*
X12055000Y-12691429D01*
X12069286Y-12648571D01*
X12083571Y-12620000D01*
X12112143Y-12577143D01*
X12126428Y-12562857D01*
X12212143Y-12605714D02*
X12397857Y-12605714D01*
X12297857Y-12720000D01*
X12340714Y-12720000D01*
X12369286Y-12734286D01*
X12383571Y-12748571D01*
X12397857Y-12777143D01*
X12397857Y-12848571D01*
X12383571Y-12877143D01*
X12369286Y-12891429D01*
X12340714Y-12905714D01*
X12255000Y-12905714D01*
X12226428Y-12891429D01*
X12212143Y-12877143D01*
X12755000Y-12905714D02*
X12755000Y-12605714D01*
X12883571Y-12905714D02*
X12883571Y-12748571D01*
X12869286Y-12720000D01*
X12840714Y-12705714D01*
X12797857Y-12705714D01*
X12769286Y-12720000D01*
X12755000Y-12734286D01*
X13069286Y-12905714D02*
X13040714Y-12891429D01*
X13026428Y-12877143D01*
X13012143Y-12848571D01*
X13012143Y-12762857D01*
X13026428Y-12734286D01*
X13040714Y-12720000D01*
X13069286Y-12705714D01*
X13112143Y-12705714D01*
X13140714Y-12720000D01*
X13155000Y-12734286D01*
X13169286Y-12762857D01*
X13169286Y-12848571D01*
X13155000Y-12877143D01*
X13140714Y-12891429D01*
X13112143Y-12905714D01*
X13069286Y-12905714D01*
X13340714Y-12905714D02*
X13312143Y-12891429D01*
X13297857Y-12862857D01*
X13297857Y-12605714D01*
X13569286Y-12891429D02*
X13540714Y-12905714D01*
X13483571Y-12905714D01*
X13455000Y-12891429D01*
X13440714Y-12862857D01*
X13440714Y-12748571D01*
X13455000Y-12720000D01*
X13483571Y-12705714D01*
X13540714Y-12705714D01*
X13569286Y-12720000D01*
X13583571Y-12748571D01*
X13583571Y-12777143D01*
X13440714Y-12805714D01*
X13697857Y-12891429D02*
X13726428Y-12905714D01*
X13783571Y-12905714D01*
X13812143Y-12891429D01*
X13826428Y-12862857D01*
X13826428Y-12848571D01*
X13812143Y-12820000D01*
X13783571Y-12805714D01*
X13740714Y-12805714D01*
X13712143Y-12791429D01*
X13697857Y-12762857D01*
X13697857Y-12748571D01*
X13712143Y-12720000D01*
X13740714Y-12705714D01*
X13783571Y-12705714D01*
X13812143Y-12720000D01*
X13926428Y-13020000D02*
X13940714Y-13005714D01*
X13969286Y-12962857D01*
X13983571Y-12934286D01*
X13997857Y-12891429D01*
X14012143Y-12820000D01*
X14012143Y-12762857D01*
X13997857Y-12691429D01*
X13983571Y-12648571D01*
X13969286Y-12620000D01*
X13940714Y-12577143D01*
X13926428Y-12562857D01*
X14469286Y-13020000D02*
X14455000Y-13005714D01*
X14426428Y-12962857D01*
X14412143Y-12934286D01*
X14397857Y-12891429D01*
X14383571Y-12820000D01*
X14383571Y-12762857D01*
X14397857Y-12691429D01*
X14412143Y-12648571D01*
X14426428Y-12620000D01*
X14455000Y-12577143D01*
X14469286Y-12562857D01*
X14583571Y-12705714D02*
X14583571Y-12905714D01*
X14583571Y-12734286D02*
X14597857Y-12720000D01*
X14626428Y-12705714D01*
X14669286Y-12705714D01*
X14697857Y-12720000D01*
X14712143Y-12748571D01*
X14712143Y-12905714D01*
X14897857Y-12905714D02*
X14869286Y-12891429D01*
X14855000Y-12877143D01*
X14840714Y-12848571D01*
X14840714Y-12762857D01*
X14855000Y-12734286D01*
X14869286Y-12720000D01*
X14897857Y-12705714D01*
X14940714Y-12705714D01*
X14969286Y-12720000D01*
X14983571Y-12734286D01*
X14997857Y-12762857D01*
X14997857Y-12848571D01*
X14983571Y-12877143D01*
X14969286Y-12891429D01*
X14940714Y-12905714D01*
X14897857Y-12905714D01*
X15083571Y-12705714D02*
X15197857Y-12705714D01*
X15126428Y-12605714D02*
X15126428Y-12862857D01*
X15140714Y-12891429D01*
X15169286Y-12905714D01*
X15197857Y-12905714D01*
X15526428Y-12705714D02*
X15526428Y-13005714D01*
X15526428Y-12720000D02*
X15555000Y-12705714D01*
X15612143Y-12705714D01*
X15640714Y-12720000D01*
X15655000Y-12734286D01*
X15669286Y-12762857D01*
X15669286Y-12848571D01*
X15655000Y-12877143D01*
X15640714Y-12891429D01*
X15612143Y-12905714D01*
X15555000Y-12905714D01*
X15526428Y-12891429D01*
X15840714Y-12905714D02*
X15812143Y-12891429D01*
X15797857Y-12862857D01*
X15797857Y-12605714D01*
X16083571Y-12905714D02*
X16083571Y-12748571D01*
X16069286Y-12720000D01*
X16040714Y-12705714D01*
X15983571Y-12705714D01*
X15955000Y-12720000D01*
X16083571Y-12891429D02*
X16055000Y-12905714D01*
X15983571Y-12905714D01*
X15955000Y-12891429D01*
X15940714Y-12862857D01*
X15940714Y-12834286D01*
X15955000Y-12805714D01*
X15983571Y-12791429D01*
X16055000Y-12791429D01*
X16083571Y-12777143D01*
X16183571Y-12705714D02*
X16297857Y-12705714D01*
X16226428Y-12605714D02*
X16226428Y-12862857D01*
X16240714Y-12891429D01*
X16269286Y-12905714D01*
X16297857Y-12905714D01*
X16512143Y-12891429D02*
X16483571Y-12905714D01*
X16426428Y-12905714D01*
X16397857Y-12891429D01*
X16383571Y-12862857D01*
X16383571Y-12748571D01*
X16397857Y-12720000D01*
X16426428Y-12705714D01*
X16483571Y-12705714D01*
X16512143Y-12720000D01*
X16526428Y-12748571D01*
X16526428Y-12777143D01*
X16383571Y-12805714D01*
X16783571Y-12905714D02*
X16783571Y-12605714D01*
X16783571Y-12891429D02*
X16755000Y-12905714D01*
X16697857Y-12905714D01*
X16669286Y-12891429D01*
X16655000Y-12877143D01*
X16640714Y-12848571D01*
X16640714Y-12762857D01*
X16655000Y-12734286D01*
X16669286Y-12720000D01*
X16697857Y-12705714D01*
X16755000Y-12705714D01*
X16783571Y-12720000D01*
X16897857Y-13020000D02*
X16912143Y-13005714D01*
X16940714Y-12962857D01*
X16955000Y-12934286D01*
X16969286Y-12891429D01*
X16983571Y-12820000D01*
X16983571Y-12762857D01*
X16969286Y-12691429D01*
X16955000Y-12648571D01*
X16940714Y-12620000D01*
X16912143Y-12577143D01*
X16897857Y-12562857D01*
M02*
