%TF.GenerationSoftware,KiCad,Pcbnew,(5.1.9-0-10_14)*%
%TF.CreationDate,2021-09-13T08:54:23+02:00*%
%TF.ProjectId,v0_miniAB_pancake_board,76305f6d-696e-4694-9142-5f70616e6361,rev?*%
%TF.SameCoordinates,Original*%
%TF.FileFunction,Legend,Bot*%
%TF.FilePolarity,Positive*%
%FSLAX46Y46*%
G04 Gerber Fmt 4.6, Leading zero omitted, Abs format (unit mm)*
G04 Created by KiCad (PCBNEW (5.1.9-0-10_14)) date 2021-09-13 08:54:23*
%MOMM*%
%LPD*%
G01*
G04 APERTURE LIST*
%ADD10C,0.300000*%
%ADD11C,0.150000*%
%ADD12C,0.100000*%
%ADD13C,0.120000*%
G04 APERTURE END LIST*
D10*
X111918950Y-112742787D02*
X112436588Y-110810935D01*
X111700645Y-110613740D01*
X111492010Y-110656434D01*
X111375367Y-110723777D01*
X111234076Y-110883114D01*
X111160127Y-111159092D01*
X111202821Y-111367728D01*
X111270165Y-111484370D01*
X111429501Y-111625662D01*
X112165445Y-111822857D01*
X110226988Y-111697841D02*
X109307059Y-111451346D01*
X110263078Y-112299097D02*
X110136765Y-110194699D01*
X108975176Y-111954005D01*
X108331226Y-111781459D02*
X108848864Y-109849607D01*
X107227311Y-111485666D01*
X107744949Y-109553814D01*
X105252765Y-110759392D02*
X105320108Y-110876035D01*
X105571438Y-111041976D01*
X105755424Y-111091275D01*
X106056052Y-111073230D01*
X106289337Y-110938543D01*
X106430628Y-110779207D01*
X106621219Y-110435884D01*
X106695167Y-110159906D01*
X106701772Y-109767284D01*
X106659078Y-109558649D01*
X106524391Y-109325364D01*
X106273062Y-109159423D01*
X106089076Y-109110124D01*
X105788448Y-109128169D01*
X105671805Y-109195512D01*
X104615419Y-110194225D02*
X103695490Y-109947731D01*
X104651508Y-110795482D02*
X104525196Y-108691084D01*
X103363607Y-110450390D01*
X102719657Y-110277843D02*
X103237295Y-108345992D01*
X101615742Y-109982050D02*
X102739471Y-109099980D01*
X102133380Y-108050199D02*
X102941502Y-109449907D01*
X101058949Y-108748283D02*
X100414998Y-108575737D01*
X99867876Y-109513711D02*
X100787805Y-109760205D01*
X101305443Y-107828354D01*
X100385514Y-107581859D01*
X97195246Y-107713007D02*
X96894617Y-107731052D01*
X96777975Y-107798395D01*
X96636683Y-107957732D01*
X96562735Y-108233710D01*
X96605429Y-108442346D01*
X96672772Y-108558988D01*
X96832109Y-108700280D01*
X97568052Y-108897475D01*
X98085690Y-106965624D01*
X97441740Y-106793078D01*
X97233105Y-106835772D01*
X97116462Y-106903115D01*
X96975170Y-107062452D01*
X96925872Y-107246437D01*
X96968566Y-107455073D01*
X97035909Y-107571715D01*
X97195246Y-107713007D01*
X97839196Y-107885553D01*
X95785867Y-106349388D02*
X95417895Y-106250790D01*
X95209260Y-106293484D01*
X94975975Y-106428171D01*
X94785385Y-106771493D01*
X94612839Y-107415444D01*
X94606234Y-107808065D01*
X94740921Y-108041350D01*
X94900257Y-108182642D01*
X95268229Y-108281239D01*
X95476864Y-108238545D01*
X95710149Y-108103858D01*
X95900740Y-107760536D01*
X96073286Y-107116585D01*
X96079891Y-106723964D01*
X95945204Y-106490680D01*
X95785867Y-106349388D01*
X93852246Y-107310241D02*
X92932316Y-107063747D01*
X93888335Y-107911498D02*
X93762023Y-105807100D01*
X92600434Y-107566406D01*
X90852568Y-107098067D02*
X91743013Y-106350683D01*
X91956483Y-107393860D02*
X92474121Y-105462008D01*
X91738178Y-105264813D01*
X91529543Y-105307507D01*
X91412900Y-105374850D01*
X91271608Y-105534187D01*
X91197660Y-105810166D01*
X91240354Y-106018801D01*
X91307698Y-106135443D01*
X91467034Y-106276735D01*
X92202978Y-106473930D01*
X90024632Y-106876222D02*
X90542270Y-104944370D01*
X90082305Y-104821123D01*
X89781677Y-104839168D01*
X89548392Y-104973855D01*
X89407100Y-105133191D01*
X89216510Y-105476513D01*
X89142561Y-105752492D01*
X89135957Y-106145113D01*
X89178651Y-106353749D01*
X89313338Y-106587033D01*
X89564667Y-106752975D01*
X90024632Y-106876222D01*
D11*
X103339241Y-116224301D02*
X103418909Y-116294947D01*
X103602895Y-116344246D01*
X103707213Y-116322899D01*
X103765534Y-116289227D01*
X103836180Y-116209559D01*
X103910128Y-115933580D01*
X103888781Y-115829262D01*
X103855109Y-115770941D01*
X103775441Y-115700295D01*
X103591455Y-115650996D01*
X103487137Y-115672343D01*
X102912948Y-116159375D02*
X103171767Y-115193449D01*
X102498980Y-116048452D02*
X102634552Y-115542491D01*
X102705198Y-115462823D01*
X102809515Y-115441476D01*
X102947505Y-115478450D01*
X103027173Y-115549096D01*
X103060845Y-115607417D01*
X102039015Y-115925205D02*
X102211561Y-115281255D01*
X102162262Y-115465241D02*
X102140915Y-115360923D01*
X102107243Y-115302602D01*
X102027575Y-115231956D01*
X101935582Y-115207306D01*
X101441061Y-115764984D02*
X101613607Y-115121033D01*
X101699880Y-114799058D02*
X101733552Y-114857379D01*
X101675231Y-114891051D01*
X101641559Y-114832730D01*
X101699880Y-114799058D01*
X101675231Y-114891051D01*
X101039418Y-115608065D02*
X100935100Y-115629412D01*
X100751114Y-115580113D01*
X100671446Y-115509467D01*
X100650099Y-115405150D01*
X100662423Y-115359153D01*
X100733069Y-115279485D01*
X100837387Y-115258138D01*
X100975376Y-115295112D01*
X101079694Y-115273765D01*
X101150340Y-115194097D01*
X101162665Y-115148100D01*
X101141318Y-115043783D01*
X101061649Y-114973137D01*
X100923660Y-114936163D01*
X100819342Y-114957510D01*
X100509692Y-114825240D02*
X100141720Y-114726642D01*
X100457975Y-114466291D02*
X100236131Y-115294227D01*
X100165485Y-115373895D01*
X100061167Y-115395242D01*
X99969174Y-115370593D01*
X99509209Y-115247346D02*
X99613527Y-115225999D01*
X99671848Y-115192327D01*
X99742494Y-115112659D01*
X99816442Y-114836680D01*
X99795095Y-114732362D01*
X99761424Y-114674041D01*
X99681755Y-114603395D01*
X99543766Y-114566421D01*
X99439448Y-114587768D01*
X99381127Y-114621440D01*
X99310481Y-114701108D01*
X99236533Y-114977087D01*
X99257880Y-115081405D01*
X99291552Y-115139726D01*
X99371220Y-115210372D01*
X99509209Y-115247346D01*
X98945812Y-114406200D02*
X98686993Y-115372126D01*
X98933487Y-114452196D02*
X98853819Y-114381550D01*
X98669833Y-114332252D01*
X98565515Y-114353599D01*
X98507194Y-114387270D01*
X98436548Y-114466939D01*
X98362600Y-114742917D01*
X98383947Y-114847235D01*
X98417619Y-114905556D01*
X98497287Y-114976202D01*
X98681273Y-115025501D01*
X98785591Y-115004154D01*
X97899333Y-114815981D02*
X98158152Y-113850055D01*
X97485365Y-114705058D02*
X97620937Y-114199097D01*
X97691583Y-114119429D01*
X97795900Y-114098082D01*
X97933890Y-114135056D01*
X98013558Y-114205702D01*
X98047230Y-114264023D01*
X97025400Y-114581811D02*
X97197946Y-113937861D01*
X97173297Y-114029854D02*
X97139625Y-113971532D01*
X97059957Y-113900886D01*
X96921967Y-113863912D01*
X96817650Y-113885259D01*
X96747004Y-113964928D01*
X96611432Y-114470889D01*
X96747004Y-113964928D02*
X96725657Y-113860610D01*
X96645988Y-113789964D01*
X96507999Y-113752990D01*
X96403681Y-113774337D01*
X96333036Y-113854005D01*
X96197464Y-114359966D01*
X95496077Y-113481846D02*
X95323531Y-114125797D01*
X95910045Y-113592769D02*
X95774473Y-114098730D01*
X95703827Y-114178398D01*
X95599510Y-114199745D01*
X95461520Y-114162771D01*
X95381852Y-114092125D01*
X95348180Y-114033804D01*
X94507919Y-113857955D02*
X94587587Y-113928601D01*
X94771573Y-113977900D01*
X94875891Y-113956553D01*
X94946537Y-113876885D01*
X95045134Y-113508913D01*
X95023787Y-113404595D01*
X94944119Y-113333950D01*
X94760133Y-113284651D01*
X94655816Y-113305998D01*
X94585170Y-113385666D01*
X94560520Y-113477659D01*
X94995836Y-113692899D01*
X93897640Y-113743730D02*
X94001958Y-113722383D01*
X94072604Y-113642715D01*
X94294449Y-112814779D01*
X93391679Y-113608159D02*
X93495997Y-113586812D01*
X93566643Y-113507143D01*
X93788488Y-112679207D01*
X92668060Y-113364967D02*
X92747729Y-113435613D01*
X92931714Y-113484911D01*
X93036032Y-113463564D01*
X93106678Y-113383896D01*
X93205276Y-113015924D01*
X93183929Y-112911607D01*
X93104260Y-112840961D01*
X92920275Y-112791662D01*
X92815957Y-112813009D01*
X92745311Y-112892677D01*
X92720662Y-112984670D01*
X93155977Y-113199910D01*
X92195771Y-113287716D02*
X92368317Y-112643765D01*
X92319018Y-112827751D02*
X92297671Y-112723434D01*
X92263999Y-112665112D01*
X92184331Y-112594467D01*
X92092338Y-112569817D01*
X91622466Y-113035502D02*
X91564145Y-113069173D01*
X91597817Y-113127495D01*
X91656138Y-113093823D01*
X91622466Y-113035502D01*
X91597817Y-113127495D01*
X90999863Y-112967273D02*
X91104180Y-112945926D01*
X91162502Y-112912255D01*
X91233148Y-112832586D01*
X91307096Y-112556608D01*
X91285749Y-112452290D01*
X91252077Y-112393969D01*
X91172409Y-112323323D01*
X91034419Y-112286349D01*
X90930102Y-112307696D01*
X90871781Y-112341367D01*
X90801135Y-112421036D01*
X90727186Y-112697014D01*
X90748533Y-112801332D01*
X90782205Y-112859653D01*
X90861873Y-112930299D01*
X90999863Y-112967273D01*
X90263919Y-112770078D02*
X90436465Y-112126127D01*
X90387166Y-112310113D02*
X90365819Y-112205796D01*
X90332148Y-112147474D01*
X90252479Y-112076828D01*
X90160487Y-112052179D01*
X89424543Y-111854984D02*
X89215023Y-112636924D01*
X89236370Y-112741241D01*
X89270042Y-112799562D01*
X89349710Y-112870208D01*
X89487699Y-112907182D01*
X89592017Y-112885835D01*
X89264322Y-112452938D02*
X89343990Y-112523584D01*
X89527976Y-112572882D01*
X89632293Y-112551535D01*
X89690615Y-112517864D01*
X89761261Y-112438195D01*
X89835209Y-112162217D01*
X89813862Y-112057899D01*
X89780190Y-111999578D01*
X89700522Y-111928932D01*
X89516536Y-111879633D01*
X89412218Y-111900980D01*
X97959432Y-115603612D02*
X97925760Y-115545291D01*
X97846092Y-115474645D01*
X97616110Y-115413021D01*
X97511792Y-115434368D01*
X97453471Y-115468040D01*
X97382825Y-115547708D01*
X97358176Y-115639701D01*
X97367198Y-115790015D01*
X97771259Y-116489869D01*
X97173305Y-116329648D01*
X96834170Y-115203501D02*
X96742177Y-115178852D01*
X96637859Y-115200199D01*
X96579538Y-115233870D01*
X96508892Y-115313539D01*
X96413597Y-115485200D01*
X96351973Y-115715182D01*
X96348671Y-115911493D01*
X96370018Y-116015810D01*
X96403690Y-116074131D01*
X96483358Y-116144777D01*
X96575351Y-116169427D01*
X96679668Y-116148080D01*
X96737990Y-116114408D01*
X96808636Y-116034740D01*
X96903931Y-115863079D01*
X96965554Y-115633096D01*
X96968857Y-115436786D01*
X96947510Y-115332468D01*
X96913838Y-115274147D01*
X96834170Y-115203501D01*
X96119573Y-115110623D02*
X96085902Y-115052302D01*
X96006233Y-114981656D01*
X95776251Y-114920033D01*
X95671933Y-114941380D01*
X95613612Y-114975051D01*
X95542966Y-115054720D01*
X95518317Y-115146712D01*
X95527339Y-115297027D01*
X95931400Y-115996881D01*
X95333446Y-115836659D01*
X94413517Y-115590165D02*
X94965474Y-115738062D01*
X94689496Y-115664113D02*
X94948315Y-114698188D01*
X95003333Y-114860826D01*
X95070677Y-114977469D01*
X95150345Y-115048115D01*
X93278571Y-86921428D02*
X91778571Y-86921428D01*
X91778571Y-87492857D01*
X91850000Y-87635714D01*
X91921428Y-87707142D01*
X92064285Y-87778571D01*
X92278571Y-87778571D01*
X92421428Y-87707142D01*
X92492857Y-87635714D01*
X92564285Y-87492857D01*
X92564285Y-86921428D01*
X93278571Y-88421428D02*
X91778571Y-88421428D01*
X93278571Y-89135714D02*
X91778571Y-89135714D01*
X93278571Y-89992857D01*
X91778571Y-89992857D01*
X91778571Y-90992857D02*
X91778571Y-91278571D01*
X91850000Y-91421428D01*
X91992857Y-91564285D01*
X92278571Y-91635714D01*
X92778571Y-91635714D01*
X93064285Y-91564285D01*
X93207142Y-91421428D01*
X93278571Y-91278571D01*
X93278571Y-90992857D01*
X93207142Y-90850000D01*
X93064285Y-90707142D01*
X92778571Y-90635714D01*
X92278571Y-90635714D01*
X91992857Y-90707142D01*
X91850000Y-90850000D01*
X91778571Y-90992857D01*
X91778571Y-92278571D02*
X92992857Y-92278571D01*
X93135714Y-92350000D01*
X93207142Y-92421428D01*
X93278571Y-92564285D01*
X93278571Y-92850000D01*
X93207142Y-92992857D01*
X93135714Y-93064285D01*
X92992857Y-93135714D01*
X91778571Y-93135714D01*
X91778571Y-93635714D02*
X91778571Y-94492857D01*
X93278571Y-94064285D02*
X91778571Y-94064285D01*
X86260714Y-94628571D02*
X86260714Y-95009523D01*
X85927380Y-94771428D02*
X86784523Y-94771428D01*
X86879761Y-94819047D01*
X86927380Y-94914285D01*
X86927380Y-95009523D01*
X86927380Y-95342857D02*
X85927380Y-95342857D01*
X86927380Y-95771428D02*
X86403571Y-95771428D01*
X86308333Y-95723809D01*
X86260714Y-95628571D01*
X86260714Y-95485714D01*
X86308333Y-95390476D01*
X86355952Y-95342857D01*
X86927380Y-96247619D02*
X86260714Y-96247619D01*
X85927380Y-96247619D02*
X85975000Y-96200000D01*
X86022619Y-96247619D01*
X85975000Y-96295238D01*
X85927380Y-96247619D01*
X86022619Y-96247619D01*
X86879761Y-96676190D02*
X86927380Y-96771428D01*
X86927380Y-96961904D01*
X86879761Y-97057142D01*
X86784523Y-97104761D01*
X86736904Y-97104761D01*
X86641666Y-97057142D01*
X86594047Y-96961904D01*
X86594047Y-96819047D01*
X86546428Y-96723809D01*
X86451190Y-96676190D01*
X86403571Y-96676190D01*
X86308333Y-96723809D01*
X86260714Y-96819047D01*
X86260714Y-96961904D01*
X86308333Y-97057142D01*
X86879761Y-98247619D02*
X86927380Y-98342857D01*
X86927380Y-98533333D01*
X86879761Y-98628571D01*
X86784523Y-98676190D01*
X86736904Y-98676190D01*
X86641666Y-98628571D01*
X86594047Y-98533333D01*
X86594047Y-98390476D01*
X86546428Y-98295238D01*
X86451190Y-98247619D01*
X86403571Y-98247619D01*
X86308333Y-98295238D01*
X86260714Y-98390476D01*
X86260714Y-98533333D01*
X86308333Y-98628571D01*
X86927380Y-99104761D02*
X86260714Y-99104761D01*
X85927380Y-99104761D02*
X85975000Y-99057142D01*
X86022619Y-99104761D01*
X85975000Y-99152380D01*
X85927380Y-99104761D01*
X86022619Y-99104761D01*
X86927380Y-100009523D02*
X85927380Y-100009523D01*
X86879761Y-100009523D02*
X86927380Y-99914285D01*
X86927380Y-99723809D01*
X86879761Y-99628571D01*
X86832142Y-99580952D01*
X86736904Y-99533333D01*
X86451190Y-99533333D01*
X86355952Y-99580952D01*
X86308333Y-99628571D01*
X86260714Y-99723809D01*
X86260714Y-99914285D01*
X86308333Y-100009523D01*
X86879761Y-100866666D02*
X86927380Y-100771428D01*
X86927380Y-100580952D01*
X86879761Y-100485714D01*
X86784523Y-100438095D01*
X86403571Y-100438095D01*
X86308333Y-100485714D01*
X86260714Y-100580952D01*
X86260714Y-100771428D01*
X86308333Y-100866666D01*
X86403571Y-100914285D01*
X86498809Y-100914285D01*
X86594047Y-100438095D01*
X87910714Y-92271428D02*
X87910714Y-92652380D01*
X87577380Y-92414285D02*
X88434523Y-92414285D01*
X88529761Y-92461904D01*
X88577380Y-92557142D01*
X88577380Y-92652380D01*
X88577380Y-93128571D02*
X88529761Y-93033333D01*
X88482142Y-92985714D01*
X88386904Y-92938095D01*
X88101190Y-92938095D01*
X88005952Y-92985714D01*
X87958333Y-93033333D01*
X87910714Y-93128571D01*
X87910714Y-93271428D01*
X87958333Y-93366666D01*
X88005952Y-93414285D01*
X88101190Y-93461904D01*
X88386904Y-93461904D01*
X88482142Y-93414285D01*
X88529761Y-93366666D01*
X88577380Y-93271428D01*
X88577380Y-93128571D01*
X87910714Y-93795238D02*
X88577380Y-93985714D01*
X88101190Y-94176190D01*
X88577380Y-94366666D01*
X87910714Y-94557142D01*
X88577380Y-95366666D02*
X88053571Y-95366666D01*
X87958333Y-95319047D01*
X87910714Y-95223809D01*
X87910714Y-95033333D01*
X87958333Y-94938095D01*
X88529761Y-95366666D02*
X88577380Y-95271428D01*
X88577380Y-95033333D01*
X88529761Y-94938095D01*
X88434523Y-94890476D01*
X88339285Y-94890476D01*
X88244047Y-94938095D01*
X88196428Y-95033333D01*
X88196428Y-95271428D01*
X88148809Y-95366666D01*
X88577380Y-95842857D02*
X87910714Y-95842857D01*
X88101190Y-95842857D02*
X88005952Y-95890476D01*
X87958333Y-95938095D01*
X87910714Y-96033333D01*
X87910714Y-96128571D01*
X88577380Y-96890476D02*
X87577380Y-96890476D01*
X88529761Y-96890476D02*
X88577380Y-96795238D01*
X88577380Y-96604761D01*
X88529761Y-96509523D01*
X88482142Y-96461904D01*
X88386904Y-96414285D01*
X88101190Y-96414285D01*
X88005952Y-96461904D01*
X87958333Y-96509523D01*
X87910714Y-96604761D01*
X87910714Y-96795238D01*
X87958333Y-96890476D01*
X88529761Y-97319047D02*
X88577380Y-97414285D01*
X88577380Y-97604761D01*
X88529761Y-97700000D01*
X88434523Y-97747619D01*
X88386904Y-97747619D01*
X88291666Y-97700000D01*
X88244047Y-97604761D01*
X88244047Y-97461904D01*
X88196428Y-97366666D01*
X88101190Y-97319047D01*
X88053571Y-97319047D01*
X87958333Y-97366666D01*
X87910714Y-97461904D01*
X87910714Y-97604761D01*
X87958333Y-97700000D01*
X88529761Y-98890476D02*
X88577380Y-98985714D01*
X88577380Y-99176190D01*
X88529761Y-99271428D01*
X88434523Y-99319047D01*
X88386904Y-99319047D01*
X88291666Y-99271428D01*
X88244047Y-99176190D01*
X88244047Y-99033333D01*
X88196428Y-98938095D01*
X88101190Y-98890476D01*
X88053571Y-98890476D01*
X87958333Y-98938095D01*
X87910714Y-99033333D01*
X87910714Y-99176190D01*
X87958333Y-99271428D01*
X87910714Y-99604761D02*
X87910714Y-99985714D01*
X87577380Y-99747619D02*
X88434523Y-99747619D01*
X88529761Y-99795238D01*
X88577380Y-99890476D01*
X88577380Y-99985714D01*
X88529761Y-100700000D02*
X88577380Y-100604761D01*
X88577380Y-100414285D01*
X88529761Y-100319047D01*
X88434523Y-100271428D01*
X88053571Y-100271428D01*
X87958333Y-100319047D01*
X87910714Y-100414285D01*
X87910714Y-100604761D01*
X87958333Y-100700000D01*
X88053571Y-100747619D01*
X88148809Y-100747619D01*
X88244047Y-100271428D01*
X87910714Y-101176190D02*
X88910714Y-101176190D01*
X87958333Y-101176190D02*
X87910714Y-101271428D01*
X87910714Y-101461904D01*
X87958333Y-101557142D01*
X88005952Y-101604761D01*
X88101190Y-101652380D01*
X88386904Y-101652380D01*
X88482142Y-101604761D01*
X88529761Y-101557142D01*
X88577380Y-101461904D01*
X88577380Y-101271428D01*
X88529761Y-101176190D01*
X87910714Y-102080952D02*
X88910714Y-102080952D01*
X87958333Y-102080952D02*
X87910714Y-102176190D01*
X87910714Y-102366666D01*
X87958333Y-102461904D01*
X88005952Y-102509523D01*
X88101190Y-102557142D01*
X88386904Y-102557142D01*
X88482142Y-102509523D01*
X88529761Y-102461904D01*
X88577380Y-102366666D01*
X88577380Y-102176190D01*
X88529761Y-102080952D01*
X88529761Y-103366666D02*
X88577380Y-103271428D01*
X88577380Y-103080952D01*
X88529761Y-102985714D01*
X88434523Y-102938095D01*
X88053571Y-102938095D01*
X87958333Y-102985714D01*
X87910714Y-103080952D01*
X87910714Y-103271428D01*
X87958333Y-103366666D01*
X88053571Y-103414285D01*
X88148809Y-103414285D01*
X88244047Y-102938095D01*
X88577380Y-103842857D02*
X87910714Y-103842857D01*
X88101190Y-103842857D02*
X88005952Y-103890476D01*
X87958333Y-103938095D01*
X87910714Y-104033333D01*
X87910714Y-104128571D01*
X89858037Y-86314381D02*
X89790694Y-86449068D01*
X89622335Y-86617427D01*
X89521320Y-86651099D01*
X89453976Y-86651099D01*
X89352961Y-86617427D01*
X89285618Y-86550084D01*
X89251946Y-86449068D01*
X89251946Y-86381725D01*
X89285618Y-86280710D01*
X89386633Y-86112351D01*
X89420305Y-86011336D01*
X89420305Y-85943992D01*
X89386633Y-85842977D01*
X89319289Y-85775633D01*
X89218274Y-85741962D01*
X89150931Y-85741962D01*
X89049915Y-85775633D01*
X88881557Y-85943992D01*
X88814213Y-86078679D01*
X88578511Y-86247038D02*
X88174450Y-86651099D01*
X89083587Y-87156175D02*
X88376480Y-86449068D01*
X88275465Y-87223519D02*
X88039763Y-87459221D01*
X88309137Y-87930625D02*
X88645854Y-87593908D01*
X87938748Y-86886801D01*
X87602030Y-87223519D01*
X88006091Y-88233671D02*
X87298984Y-87526564D01*
X87029610Y-87795938D01*
X86995938Y-87896954D01*
X86995938Y-87964297D01*
X87029610Y-88065312D01*
X87130625Y-88166328D01*
X87231641Y-88200000D01*
X87298984Y-88200000D01*
X87400000Y-88166328D01*
X87669374Y-87896954D01*
X87298984Y-88940778D02*
X86591877Y-88233671D01*
X86322503Y-88503045D01*
X86288832Y-88604061D01*
X86288832Y-88671404D01*
X86322503Y-88772419D01*
X86423519Y-88873435D01*
X86524534Y-88907106D01*
X86591877Y-88907106D01*
X86692893Y-88873435D01*
X86962267Y-88604061D01*
X86221488Y-89277496D02*
X85985786Y-89513198D01*
X86255160Y-89984602D02*
X86591877Y-89647885D01*
X85884771Y-88940778D01*
X85548053Y-89277496D01*
X85548053Y-90691709D02*
X85447038Y-90119289D01*
X85952114Y-90287648D02*
X85245007Y-89580541D01*
X84975633Y-89849915D01*
X84941962Y-89950931D01*
X84941962Y-90018274D01*
X84975633Y-90119289D01*
X85076649Y-90220305D01*
X85177664Y-90253976D01*
X85245007Y-90253976D01*
X85346023Y-90220305D01*
X85615397Y-89950931D01*
X82982850Y-102360166D02*
X82809201Y-101375358D01*
X82434037Y-101441510D01*
X82348514Y-101504944D01*
X82309888Y-101560108D01*
X82279530Y-101662168D01*
X82304337Y-101802855D01*
X82367770Y-101888377D01*
X82422935Y-101927004D01*
X82524995Y-101957362D01*
X82900160Y-101891210D01*
X81995324Y-102244172D02*
X81526368Y-102326861D01*
X82138729Y-102509007D02*
X81636811Y-101582082D01*
X81482190Y-102624773D01*
X80591174Y-102781883D02*
X80836753Y-102255044D01*
X81153921Y-102682656D02*
X80980273Y-101697848D01*
X80605108Y-101763999D01*
X80519586Y-101827433D01*
X80480959Y-101882598D01*
X80450601Y-101984658D01*
X80475408Y-102125345D01*
X80538842Y-102210867D01*
X80594006Y-102249493D01*
X80696067Y-102279851D01*
X81071231Y-102213699D01*
X80136152Y-101846689D02*
X79573405Y-101945917D01*
X80028426Y-102881111D02*
X79854778Y-101896303D01*
X82428080Y-103601551D02*
X82756350Y-103543668D01*
X82847308Y-104059520D02*
X82673660Y-103074712D01*
X82204704Y-103157402D01*
X82000469Y-103918718D02*
X81531513Y-104001408D01*
X82143874Y-104183554D02*
X81641957Y-103256629D01*
X81487336Y-104299320D01*
X81159066Y-104357202D02*
X80985418Y-103372395D01*
X80596319Y-104456430D01*
X80422671Y-103471622D01*
X118812259Y-107405917D02*
X118985908Y-106421110D01*
X118610743Y-106354958D01*
X118508683Y-106385316D01*
X118453518Y-106423942D01*
X118390084Y-106509465D01*
X118365278Y-106650151D01*
X118395635Y-106752212D01*
X118434262Y-106807376D01*
X118519784Y-106870810D01*
X118894949Y-106936961D01*
X117923961Y-106959165D02*
X117455005Y-106876475D01*
X117968138Y-107257076D02*
X117813517Y-106214386D01*
X117311600Y-107141311D01*
X116420583Y-106984200D02*
X116831542Y-106573127D01*
X116983331Y-107083428D02*
X117156979Y-106098620D01*
X116781814Y-106032469D01*
X116679754Y-106062826D01*
X116624589Y-106101453D01*
X116561156Y-106186975D01*
X116536349Y-106327662D01*
X116566707Y-106429722D01*
X116605333Y-106484887D01*
X116690855Y-106548320D01*
X117066020Y-106614472D01*
X116312858Y-105949779D02*
X115750111Y-105850551D01*
X115857836Y-106884973D02*
X116031484Y-105900165D01*
X117866369Y-108382695D02*
X118194639Y-108440578D01*
X118103680Y-108956430D02*
X118277328Y-107971622D01*
X117808372Y-107888932D01*
X117356068Y-108534484D02*
X116887112Y-108451794D01*
X117400246Y-108832395D02*
X117245625Y-107789705D01*
X116743707Y-108716630D01*
X116415438Y-108658747D02*
X116589086Y-107673939D01*
X115852691Y-108559520D01*
X116026339Y-107574712D01*
X108583333Y-87457142D02*
X108535714Y-87409523D01*
X108392857Y-87314285D01*
X108297619Y-87266666D01*
X108154761Y-87219047D01*
X107916666Y-87171428D01*
X107726190Y-87171428D01*
X107488095Y-87219047D01*
X107345238Y-87266666D01*
X107250000Y-87314285D01*
X107107142Y-87409523D01*
X107059523Y-87457142D01*
X108202380Y-88266666D02*
X107678571Y-88266666D01*
X107583333Y-88219047D01*
X107535714Y-88123809D01*
X107535714Y-87933333D01*
X107583333Y-87838095D01*
X108154761Y-88266666D02*
X108202380Y-88171428D01*
X108202380Y-87933333D01*
X108154761Y-87838095D01*
X108059523Y-87790476D01*
X107964285Y-87790476D01*
X107869047Y-87838095D01*
X107821428Y-87933333D01*
X107821428Y-88171428D01*
X107773809Y-88266666D01*
X108154761Y-88695238D02*
X108202380Y-88790476D01*
X108202380Y-88980952D01*
X108154761Y-89076190D01*
X108059523Y-89123809D01*
X108011904Y-89123809D01*
X107916666Y-89076190D01*
X107869047Y-88980952D01*
X107869047Y-88838095D01*
X107821428Y-88742857D01*
X107726190Y-88695238D01*
X107678571Y-88695238D01*
X107583333Y-88742857D01*
X107535714Y-88838095D01*
X107535714Y-88980952D01*
X107583333Y-89076190D01*
X108154761Y-90266666D02*
X108202380Y-90361904D01*
X108202380Y-90552380D01*
X108154761Y-90647619D01*
X108059523Y-90695238D01*
X108011904Y-90695238D01*
X107916666Y-90647619D01*
X107869047Y-90552380D01*
X107869047Y-90409523D01*
X107821428Y-90314285D01*
X107726190Y-90266666D01*
X107678571Y-90266666D01*
X107583333Y-90314285D01*
X107535714Y-90409523D01*
X107535714Y-90552380D01*
X107583333Y-90647619D01*
X108154761Y-91504761D02*
X108202380Y-91409523D01*
X108202380Y-91219047D01*
X108154761Y-91123809D01*
X108059523Y-91076190D01*
X107678571Y-91076190D01*
X107583333Y-91123809D01*
X107535714Y-91219047D01*
X107535714Y-91409523D01*
X107583333Y-91504761D01*
X107678571Y-91552380D01*
X107773809Y-91552380D01*
X107869047Y-91076190D01*
X108154761Y-92361904D02*
X108202380Y-92266666D01*
X108202380Y-92076190D01*
X108154761Y-91980952D01*
X108059523Y-91933333D01*
X107678571Y-91933333D01*
X107583333Y-91980952D01*
X107535714Y-92076190D01*
X107535714Y-92266666D01*
X107583333Y-92361904D01*
X107678571Y-92409523D01*
X107773809Y-92409523D01*
X107869047Y-91933333D01*
X107535714Y-92838095D02*
X108202380Y-92838095D01*
X107630952Y-92838095D02*
X107583333Y-92885714D01*
X107535714Y-92980952D01*
X107535714Y-93123809D01*
X107583333Y-93219047D01*
X107678571Y-93266666D01*
X108202380Y-93266666D01*
X109185714Y-86838095D02*
X109185714Y-87219047D01*
X109852380Y-86980952D02*
X108995238Y-86980952D01*
X108900000Y-87028571D01*
X108852380Y-87123809D01*
X108852380Y-87219047D01*
X109852380Y-87552380D02*
X109185714Y-87552380D01*
X109376190Y-87552380D02*
X109280952Y-87600000D01*
X109233333Y-87647619D01*
X109185714Y-87742857D01*
X109185714Y-87838095D01*
X109852380Y-88314285D02*
X109804761Y-88219047D01*
X109757142Y-88171428D01*
X109661904Y-88123809D01*
X109376190Y-88123809D01*
X109280952Y-88171428D01*
X109233333Y-88219047D01*
X109185714Y-88314285D01*
X109185714Y-88457142D01*
X109233333Y-88552380D01*
X109280952Y-88600000D01*
X109376190Y-88647619D01*
X109661904Y-88647619D01*
X109757142Y-88600000D01*
X109804761Y-88552380D01*
X109852380Y-88457142D01*
X109852380Y-88314285D01*
X109852380Y-89076190D02*
X109185714Y-89076190D01*
X109280952Y-89076190D02*
X109233333Y-89123809D01*
X109185714Y-89219047D01*
X109185714Y-89361904D01*
X109233333Y-89457142D01*
X109328571Y-89504761D01*
X109852380Y-89504761D01*
X109328571Y-89504761D02*
X109233333Y-89552380D01*
X109185714Y-89647619D01*
X109185714Y-89790476D01*
X109233333Y-89885714D01*
X109328571Y-89933333D01*
X109852380Y-89933333D01*
X109185714Y-91028571D02*
X109185714Y-91409523D01*
X108852380Y-91171428D02*
X109709523Y-91171428D01*
X109804761Y-91219047D01*
X109852380Y-91314285D01*
X109852380Y-91409523D01*
X109852380Y-91742857D02*
X108852380Y-91742857D01*
X109852380Y-92171428D02*
X109328571Y-92171428D01*
X109233333Y-92123809D01*
X109185714Y-92028571D01*
X109185714Y-91885714D01*
X109233333Y-91790476D01*
X109280952Y-91742857D01*
X109852380Y-92647619D02*
X109185714Y-92647619D01*
X108852380Y-92647619D02*
X108900000Y-92600000D01*
X108947619Y-92647619D01*
X108900000Y-92695238D01*
X108852380Y-92647619D01*
X108947619Y-92647619D01*
X109804761Y-93076190D02*
X109852380Y-93171428D01*
X109852380Y-93361904D01*
X109804761Y-93457142D01*
X109709523Y-93504761D01*
X109661904Y-93504761D01*
X109566666Y-93457142D01*
X109519047Y-93361904D01*
X109519047Y-93219047D01*
X109471428Y-93123809D01*
X109376190Y-93076190D01*
X109328571Y-93076190D01*
X109233333Y-93123809D01*
X109185714Y-93219047D01*
X109185714Y-93361904D01*
X109233333Y-93457142D01*
X111454761Y-88933333D02*
X111502380Y-89028571D01*
X111502380Y-89219047D01*
X111454761Y-89314285D01*
X111359523Y-89361904D01*
X111311904Y-89361904D01*
X111216666Y-89314285D01*
X111169047Y-89219047D01*
X111169047Y-89076190D01*
X111121428Y-88980952D01*
X111026190Y-88933333D01*
X110978571Y-88933333D01*
X110883333Y-88980952D01*
X110835714Y-89076190D01*
X110835714Y-89219047D01*
X110883333Y-89314285D01*
X111502380Y-89790476D02*
X110835714Y-89790476D01*
X110502380Y-89790476D02*
X110550000Y-89742857D01*
X110597619Y-89790476D01*
X110550000Y-89838095D01*
X110502380Y-89790476D01*
X110597619Y-89790476D01*
X111502380Y-90695238D02*
X110502380Y-90695238D01*
X111454761Y-90695238D02*
X111502380Y-90600000D01*
X111502380Y-90409523D01*
X111454761Y-90314285D01*
X111407142Y-90266666D01*
X111311904Y-90219047D01*
X111026190Y-90219047D01*
X110930952Y-90266666D01*
X110883333Y-90314285D01*
X110835714Y-90409523D01*
X110835714Y-90600000D01*
X110883333Y-90695238D01*
X111454761Y-91552380D02*
X111502380Y-91457142D01*
X111502380Y-91266666D01*
X111454761Y-91171428D01*
X111359523Y-91123809D01*
X110978571Y-91123809D01*
X110883333Y-91171428D01*
X110835714Y-91266666D01*
X110835714Y-91457142D01*
X110883333Y-91552380D01*
X110978571Y-91600000D01*
X111073809Y-91600000D01*
X111169047Y-91123809D01*
X111883333Y-91933333D02*
X111835714Y-91980952D01*
X111692857Y-92076190D01*
X111597619Y-92123809D01*
X111454761Y-92171428D01*
X111216666Y-92219047D01*
X111026190Y-92219047D01*
X110788095Y-92171428D01*
X110645238Y-92123809D01*
X110550000Y-92076190D01*
X110407142Y-91980952D01*
X110359523Y-91933333D01*
X94397619Y-91687976D02*
X94350000Y-91735595D01*
X94302380Y-91830833D01*
X94302380Y-92068928D01*
X94350000Y-92164166D01*
X94397619Y-92211785D01*
X94492857Y-92259404D01*
X94588095Y-92259404D01*
X94730952Y-92211785D01*
X95302380Y-91640357D01*
X95302380Y-92259404D01*
X94635714Y-93116547D02*
X95302380Y-93116547D01*
X94254761Y-92878452D02*
X94969047Y-92640357D01*
X94969047Y-93259404D01*
X94302380Y-93497500D02*
X95302380Y-93830833D01*
X94302380Y-94164166D01*
X96952380Y-91735595D02*
X95952380Y-91735595D01*
X96428571Y-91735595D02*
X96428571Y-92307023D01*
X96952380Y-92307023D02*
X95952380Y-92307023D01*
X96428571Y-92783214D02*
X96428571Y-93116547D01*
X96952380Y-93259404D02*
X96952380Y-92783214D01*
X95952380Y-92783214D01*
X95952380Y-93259404D01*
X96666666Y-93640357D02*
X96666666Y-94116547D01*
X96952380Y-93545119D02*
X95952380Y-93878452D01*
X96952380Y-94211785D01*
X95952380Y-94402261D02*
X95952380Y-94973690D01*
X96952380Y-94687976D02*
X95952380Y-94687976D01*
X97047619Y-95068928D02*
X97047619Y-95830833D01*
X96000000Y-96592738D02*
X95952380Y-96497500D01*
X95952380Y-96354642D01*
X96000000Y-96211785D01*
X96095238Y-96116547D01*
X96190476Y-96068928D01*
X96380952Y-96021309D01*
X96523809Y-96021309D01*
X96714285Y-96068928D01*
X96809523Y-96116547D01*
X96904761Y-96211785D01*
X96952380Y-96354642D01*
X96952380Y-96449880D01*
X96904761Y-96592738D01*
X96857142Y-96640357D01*
X96523809Y-96640357D01*
X96523809Y-96449880D01*
X96952380Y-97068928D02*
X95952380Y-97068928D01*
X96952380Y-97640357D01*
X95952380Y-97640357D01*
X96952380Y-98116547D02*
X95952380Y-98116547D01*
X95952380Y-98354642D01*
X96000000Y-98497500D01*
X96095238Y-98592738D01*
X96190476Y-98640357D01*
X96380952Y-98687976D01*
X96523809Y-98687976D01*
X96714285Y-98640357D01*
X96809523Y-98592738D01*
X96904761Y-98497500D01*
X96952380Y-98354642D01*
X96952380Y-98116547D01*
X97602380Y-91592738D02*
X97602380Y-92164166D01*
X98602380Y-91878452D02*
X97602380Y-91878452D01*
X98602380Y-92497500D02*
X97602380Y-92497500D01*
X98078571Y-92497500D02*
X98078571Y-93068928D01*
X98602380Y-93068928D02*
X97602380Y-93068928D01*
X97602380Y-93735595D02*
X97602380Y-93830833D01*
X97650000Y-93926071D01*
X97697619Y-93973690D01*
X97792857Y-94021309D01*
X97983333Y-94068928D01*
X98221428Y-94068928D01*
X98411904Y-94021309D01*
X98507142Y-93973690D01*
X98554761Y-93926071D01*
X98602380Y-93830833D01*
X98602380Y-93735595D01*
X98554761Y-93640357D01*
X98507142Y-93592738D01*
X98411904Y-93545119D01*
X98221428Y-93497500D01*
X97983333Y-93497500D01*
X97792857Y-93545119D01*
X97697619Y-93592738D01*
X97650000Y-93640357D01*
X97602380Y-93735595D01*
X99252380Y-91592738D02*
X99252380Y-92164166D01*
X100252380Y-91878452D02*
X99252380Y-91878452D01*
X100252380Y-92497500D02*
X99252380Y-92497500D01*
X99728571Y-92497500D02*
X99728571Y-93068928D01*
X100252380Y-93068928D02*
X99252380Y-93068928D01*
X100252380Y-94068928D02*
X100252380Y-93497500D01*
X100252380Y-93783214D02*
X99252380Y-93783214D01*
X99395238Y-93687976D01*
X99490476Y-93592738D01*
X99538095Y-93497500D01*
X101854761Y-91687976D02*
X101902380Y-91830833D01*
X101902380Y-92068928D01*
X101854761Y-92164166D01*
X101807142Y-92211785D01*
X101711904Y-92259404D01*
X101616666Y-92259404D01*
X101521428Y-92211785D01*
X101473809Y-92164166D01*
X101426190Y-92068928D01*
X101378571Y-91878452D01*
X101330952Y-91783214D01*
X101283333Y-91735595D01*
X101188095Y-91687976D01*
X101092857Y-91687976D01*
X100997619Y-91735595D01*
X100950000Y-91783214D01*
X100902380Y-91878452D01*
X100902380Y-92116547D01*
X100950000Y-92259404D01*
X100902380Y-92592738D02*
X101902380Y-92830833D01*
X101188095Y-93021309D01*
X101902380Y-93211785D01*
X100902380Y-93449880D01*
X100902380Y-94021309D02*
X100902380Y-94116547D01*
X100950000Y-94211785D01*
X100997619Y-94259404D01*
X101092857Y-94307023D01*
X101283333Y-94354642D01*
X101521428Y-94354642D01*
X101711904Y-94307023D01*
X101807142Y-94259404D01*
X101854761Y-94211785D01*
X101902380Y-94116547D01*
X101902380Y-94021309D01*
X101854761Y-93926071D01*
X101807142Y-93878452D01*
X101711904Y-93830833D01*
X101521428Y-93783214D01*
X101283333Y-93783214D01*
X101092857Y-93830833D01*
X100997619Y-93878452D01*
X100950000Y-93926071D01*
X100902380Y-94021309D01*
X103028571Y-92068928D02*
X103028571Y-91735595D01*
X103552380Y-91735595D02*
X102552380Y-91735595D01*
X102552380Y-92211785D01*
X103266666Y-92545119D02*
X103266666Y-93021309D01*
X103552380Y-92449880D02*
X102552380Y-92783214D01*
X103552380Y-93116547D01*
X103552380Y-93449880D02*
X102552380Y-93449880D01*
X103552380Y-94021309D01*
X102552380Y-94021309D01*
X103552380Y-95021309D02*
X103552380Y-94449880D01*
X103552380Y-94735595D02*
X102552380Y-94735595D01*
X102695238Y-94640357D01*
X102790476Y-94545119D01*
X102838095Y-94449880D01*
X104202380Y-92211785D02*
X104202380Y-91735595D01*
X104678571Y-91687976D01*
X104630952Y-91735595D01*
X104583333Y-91830833D01*
X104583333Y-92068928D01*
X104630952Y-92164166D01*
X104678571Y-92211785D01*
X104773809Y-92259404D01*
X105011904Y-92259404D01*
X105107142Y-92211785D01*
X105154761Y-92164166D01*
X105202380Y-92068928D01*
X105202380Y-91830833D01*
X105154761Y-91735595D01*
X105107142Y-91687976D01*
X104202380Y-92545119D02*
X105202380Y-92878452D01*
X104202380Y-93211785D01*
X95016666Y-87087976D02*
X95016666Y-87564166D01*
X95302380Y-86992738D02*
X94302380Y-87326071D01*
X95302380Y-87659404D01*
X94921428Y-87992738D02*
X94921428Y-88754642D01*
X95302380Y-88373690D02*
X94540476Y-88373690D01*
X96666666Y-87087976D02*
X96666666Y-87564166D01*
X96952380Y-86992738D02*
X95952380Y-87326071D01*
X96952380Y-87659404D01*
X96571428Y-87992738D02*
X96571428Y-88754642D01*
X98078571Y-87468928D02*
X98126190Y-87611785D01*
X98173809Y-87659404D01*
X98269047Y-87707023D01*
X98411904Y-87707023D01*
X98507142Y-87659404D01*
X98554761Y-87611785D01*
X98602380Y-87516547D01*
X98602380Y-87135595D01*
X97602380Y-87135595D01*
X97602380Y-87468928D01*
X97650000Y-87564166D01*
X97697619Y-87611785D01*
X97792857Y-87659404D01*
X97888095Y-87659404D01*
X97983333Y-87611785D01*
X98030952Y-87564166D01*
X98078571Y-87468928D01*
X98078571Y-87135595D01*
X98221428Y-88135595D02*
X98221428Y-88897500D01*
X98602380Y-88516547D02*
X97840476Y-88516547D01*
X99728571Y-87468928D02*
X99776190Y-87611785D01*
X99823809Y-87659404D01*
X99919047Y-87707023D01*
X100061904Y-87707023D01*
X100157142Y-87659404D01*
X100204761Y-87611785D01*
X100252380Y-87516547D01*
X100252380Y-87135595D01*
X99252380Y-87135595D01*
X99252380Y-87468928D01*
X99300000Y-87564166D01*
X99347619Y-87611785D01*
X99442857Y-87659404D01*
X99538095Y-87659404D01*
X99633333Y-87611785D01*
X99680952Y-87564166D01*
X99728571Y-87468928D01*
X99728571Y-87135595D01*
X99871428Y-88135595D02*
X99871428Y-88897500D01*
X101854761Y-87087976D02*
X101902380Y-87230833D01*
X101902380Y-87468928D01*
X101854761Y-87564166D01*
X101807142Y-87611785D01*
X101711904Y-87659404D01*
X101616666Y-87659404D01*
X101521428Y-87611785D01*
X101473809Y-87564166D01*
X101426190Y-87468928D01*
X101378571Y-87278452D01*
X101330952Y-87183214D01*
X101283333Y-87135595D01*
X101188095Y-87087976D01*
X101092857Y-87087976D01*
X100997619Y-87135595D01*
X100950000Y-87183214D01*
X100902380Y-87278452D01*
X100902380Y-87516547D01*
X100950000Y-87659404D01*
X100902380Y-87992738D02*
X101902380Y-88230833D01*
X101188095Y-88421309D01*
X101902380Y-88611785D01*
X100902380Y-88849880D01*
X101902380Y-89754642D02*
X101902380Y-89183214D01*
X101902380Y-89468928D02*
X100902380Y-89468928D01*
X101045238Y-89373690D01*
X101140476Y-89278452D01*
X101188095Y-89183214D01*
X103028571Y-87468928D02*
X103028571Y-87135595D01*
X103552380Y-87135595D02*
X102552380Y-87135595D01*
X102552380Y-87611785D01*
X103266666Y-87945119D02*
X103266666Y-88421309D01*
X103552380Y-87849880D02*
X102552380Y-88183214D01*
X103552380Y-88516547D01*
X103552380Y-88849880D02*
X102552380Y-88849880D01*
X103552380Y-89421309D01*
X102552380Y-89421309D01*
X102552380Y-90087976D02*
X102552380Y-90183214D01*
X102600000Y-90278452D01*
X102647619Y-90326071D01*
X102742857Y-90373690D01*
X102933333Y-90421309D01*
X103171428Y-90421309D01*
X103361904Y-90373690D01*
X103457142Y-90326071D01*
X103504761Y-90278452D01*
X103552380Y-90183214D01*
X103552380Y-90087976D01*
X103504761Y-89992738D01*
X103457142Y-89945119D01*
X103361904Y-89897500D01*
X103171428Y-89849880D01*
X102933333Y-89849880D01*
X102742857Y-89897500D01*
X102647619Y-89945119D01*
X102600000Y-89992738D01*
X102552380Y-90087976D01*
X104250000Y-87659404D02*
X104202380Y-87564166D01*
X104202380Y-87421309D01*
X104250000Y-87278452D01*
X104345238Y-87183214D01*
X104440476Y-87135595D01*
X104630952Y-87087976D01*
X104773809Y-87087976D01*
X104964285Y-87135595D01*
X105059523Y-87183214D01*
X105154761Y-87278452D01*
X105202380Y-87421309D01*
X105202380Y-87516547D01*
X105154761Y-87659404D01*
X105107142Y-87707023D01*
X104773809Y-87707023D01*
X104773809Y-87516547D01*
X105202380Y-88135595D02*
X104202380Y-88135595D01*
X105202380Y-88707023D01*
X104202380Y-88707023D01*
X105202380Y-89183214D02*
X104202380Y-89183214D01*
X104202380Y-89421309D01*
X104250000Y-89564166D01*
X104345238Y-89659404D01*
X104440476Y-89707023D01*
X104630952Y-89754642D01*
X104773809Y-89754642D01*
X104964285Y-89707023D01*
X105059523Y-89659404D01*
X105154761Y-89564166D01*
X105202380Y-89421309D01*
X105202380Y-89183214D01*
D12*
%TO.C,REF\u002A\u002A*%
G36*
X84823837Y-104844698D02*
G01*
X85058760Y-104759193D01*
X85562808Y-104682152D01*
X86019872Y-104622213D01*
X86464153Y-104673343D01*
X86814465Y-104758676D01*
X86993939Y-104959397D01*
X86938490Y-105245623D01*
X86648118Y-105617354D01*
X86229575Y-105929318D01*
X85670078Y-106292585D01*
X84888440Y-106630287D01*
X84183671Y-106886802D01*
X83632638Y-106980944D01*
X83239660Y-107070767D01*
X83162791Y-107151954D01*
X83167110Y-107310009D01*
X83509130Y-108249701D01*
X83825240Y-108241065D01*
X83500321Y-107348357D01*
X84192307Y-107202912D01*
X85413908Y-106758286D01*
X86473135Y-106159923D01*
X87028314Y-105638601D01*
X87224716Y-105301072D01*
X87297266Y-105061830D01*
X87275847Y-104856791D01*
X87207443Y-104668852D01*
X87062171Y-104562100D01*
X87412482Y-104647433D01*
X87604739Y-104737084D01*
X87767113Y-104890820D01*
X87801315Y-104984789D01*
X87775749Y-105206930D01*
X87609230Y-105480374D01*
X87348742Y-105788019D01*
X86947300Y-106146968D01*
X86387802Y-106510235D01*
X85717235Y-106860719D01*
X84935597Y-107198421D01*
X84465751Y-107369431D01*
X84072773Y-107459254D01*
X84013006Y-107587426D01*
X84064309Y-107728379D01*
X84192480Y-107788147D01*
X85695988Y-107240915D01*
X86366556Y-106890430D01*
X86973037Y-106510062D01*
X87468449Y-106116912D01*
X87746038Y-105856251D01*
X87912557Y-105582807D01*
X88006527Y-105548605D01*
X88314172Y-105809093D01*
X88322637Y-105539968D01*
X88254233Y-105352030D01*
X88091859Y-105198293D01*
X88100323Y-104929168D01*
X88031919Y-104741230D01*
X87852445Y-104540508D01*
X87450830Y-104314222D01*
X86942464Y-104233208D01*
X86404213Y-104216279D01*
X85678024Y-104267755D01*
X85144092Y-104408881D01*
X84704130Y-104515806D01*
X84823837Y-104844698D01*
G37*
X84823837Y-104844698D02*
X85058760Y-104759193D01*
X85562808Y-104682152D01*
X86019872Y-104622213D01*
X86464153Y-104673343D01*
X86814465Y-104758676D01*
X86993939Y-104959397D01*
X86938490Y-105245623D01*
X86648118Y-105617354D01*
X86229575Y-105929318D01*
X85670078Y-106292585D01*
X84888440Y-106630287D01*
X84183671Y-106886802D01*
X83632638Y-106980944D01*
X83239660Y-107070767D01*
X83162791Y-107151954D01*
X83167110Y-107310009D01*
X83509130Y-108249701D01*
X83825240Y-108241065D01*
X83500321Y-107348357D01*
X84192307Y-107202912D01*
X85413908Y-106758286D01*
X86473135Y-106159923D01*
X87028314Y-105638601D01*
X87224716Y-105301072D01*
X87297266Y-105061830D01*
X87275847Y-104856791D01*
X87207443Y-104668852D01*
X87062171Y-104562100D01*
X87412482Y-104647433D01*
X87604739Y-104737084D01*
X87767113Y-104890820D01*
X87801315Y-104984789D01*
X87775749Y-105206930D01*
X87609230Y-105480374D01*
X87348742Y-105788019D01*
X86947300Y-106146968D01*
X86387802Y-106510235D01*
X85717235Y-106860719D01*
X84935597Y-107198421D01*
X84465751Y-107369431D01*
X84072773Y-107459254D01*
X84013006Y-107587426D01*
X84064309Y-107728379D01*
X84192480Y-107788147D01*
X85695988Y-107240915D01*
X86366556Y-106890430D01*
X86973037Y-106510062D01*
X87468449Y-106116912D01*
X87746038Y-105856251D01*
X87912557Y-105582807D01*
X88006527Y-105548605D01*
X88314172Y-105809093D01*
X88322637Y-105539968D01*
X88254233Y-105352030D01*
X88091859Y-105198293D01*
X88100323Y-104929168D01*
X88031919Y-104741230D01*
X87852445Y-104540508D01*
X87450830Y-104314222D01*
X86942464Y-104233208D01*
X86404213Y-104216279D01*
X85678024Y-104267755D01*
X85144092Y-104408881D01*
X84704130Y-104515806D01*
X84823837Y-104844698D01*
G36*
X88027946Y-105753645D02*
G01*
X87955396Y-105992886D01*
X87558272Y-106509890D01*
X86968892Y-106937242D01*
X86362410Y-107317610D01*
X85550888Y-107719398D01*
X84752150Y-108010115D01*
X83825240Y-108241065D01*
X83509130Y-108249701D01*
X83513448Y-108407756D01*
X83406696Y-108553029D01*
X83265743Y-108604332D01*
X83009400Y-108484797D01*
X82761694Y-108681372D01*
X82924067Y-108835109D01*
X83274379Y-108920441D01*
X83556287Y-108817835D01*
X83710024Y-108655462D01*
X83769791Y-108527291D01*
X84179870Y-108484452D01*
X84854756Y-108292023D01*
X85841433Y-107932901D01*
X86729823Y-107449927D01*
X87383289Y-107052458D01*
X87908584Y-106595222D01*
X88228840Y-106159405D01*
X88250259Y-106364445D01*
X88147826Y-106667772D01*
X87827570Y-107103589D01*
X86990484Y-107727517D01*
X86178962Y-108129304D01*
X85350340Y-108484107D01*
X85452946Y-108766015D01*
X85828823Y-108629207D01*
X86469507Y-108342808D01*
X87140074Y-107992324D01*
X87900293Y-107449582D01*
X88284634Y-107043649D01*
X88481037Y-106706120D01*
X88613354Y-106338707D01*
X88493647Y-106009815D01*
X88314172Y-105809093D01*
X88006527Y-105548605D01*
X88027946Y-105753645D01*
G37*
X88027946Y-105753645D02*
X87955396Y-105992886D01*
X87558272Y-106509890D01*
X86968892Y-106937242D01*
X86362410Y-107317610D01*
X85550888Y-107719398D01*
X84752150Y-108010115D01*
X83825240Y-108241065D01*
X83509130Y-108249701D01*
X83513448Y-108407756D01*
X83406696Y-108553029D01*
X83265743Y-108604332D01*
X83009400Y-108484797D01*
X82761694Y-108681372D01*
X82924067Y-108835109D01*
X83274379Y-108920441D01*
X83556287Y-108817835D01*
X83710024Y-108655462D01*
X83769791Y-108527291D01*
X84179870Y-108484452D01*
X84854756Y-108292023D01*
X85841433Y-107932901D01*
X86729823Y-107449927D01*
X87383289Y-107052458D01*
X87908584Y-106595222D01*
X88228840Y-106159405D01*
X88250259Y-106364445D01*
X88147826Y-106667772D01*
X87827570Y-107103589D01*
X86990484Y-107727517D01*
X86178962Y-108129304D01*
X85350340Y-108484107D01*
X85452946Y-108766015D01*
X85828823Y-108629207D01*
X86469507Y-108342808D01*
X87140074Y-107992324D01*
X87900293Y-107449582D01*
X88284634Y-107043649D01*
X88481037Y-106706120D01*
X88613354Y-106338707D01*
X88493647Y-106009815D01*
X88314172Y-105809093D01*
X88006527Y-105548605D01*
X88027946Y-105753645D01*
G36*
X82291503Y-107681913D02*
G01*
X81847222Y-107630782D01*
X81334537Y-107391713D01*
X81266133Y-107203775D01*
X81351465Y-106853463D01*
X81564969Y-106562918D01*
X81539404Y-106785059D01*
X81642010Y-107066966D01*
X81932554Y-107280470D01*
X82282866Y-107365803D01*
X82385472Y-107647711D01*
X82701582Y-107639074D01*
X82496370Y-107075258D01*
X82146058Y-106989926D01*
X81983685Y-106836189D01*
X81915281Y-106648251D01*
X82034815Y-106391908D01*
X82248319Y-106101364D01*
X82589994Y-105870586D01*
X83461282Y-105340628D01*
X83358676Y-105058720D01*
X83076769Y-105161326D01*
X82453186Y-105494709D01*
X81769836Y-105956264D01*
X81214657Y-106477586D01*
X80975588Y-106990271D01*
X80984225Y-107306381D01*
X81052629Y-107494319D01*
X81249204Y-107742025D01*
X81223639Y-107964165D01*
X81292043Y-108152104D01*
X81454416Y-108305840D01*
X81428851Y-108527981D01*
X81531457Y-108809889D01*
X81693830Y-108963625D01*
X82112546Y-109236896D01*
X83095078Y-109304955D01*
X84009205Y-109185076D01*
X84795161Y-109005429D01*
X85452946Y-108766015D01*
X85350340Y-108484107D01*
X84786524Y-108689319D01*
X84000568Y-108868966D01*
X83086441Y-108988845D01*
X82548190Y-108971917D01*
X82069707Y-108826817D01*
X81813365Y-108707283D01*
X81744961Y-108519344D01*
X82223444Y-108664444D01*
X82761694Y-108681372D01*
X83009400Y-108484797D01*
X82701582Y-107639074D01*
X82291503Y-107681913D01*
G37*
X82291503Y-107681913D02*
X81847222Y-107630782D01*
X81334537Y-107391713D01*
X81266133Y-107203775D01*
X81351465Y-106853463D01*
X81564969Y-106562918D01*
X81539404Y-106785059D01*
X81642010Y-107066966D01*
X81932554Y-107280470D01*
X82282866Y-107365803D01*
X82385472Y-107647711D01*
X82701582Y-107639074D01*
X82496370Y-107075258D01*
X82146058Y-106989926D01*
X81983685Y-106836189D01*
X81915281Y-106648251D01*
X82034815Y-106391908D01*
X82248319Y-106101364D01*
X82589994Y-105870586D01*
X83461282Y-105340628D01*
X83358676Y-105058720D01*
X83076769Y-105161326D01*
X82453186Y-105494709D01*
X81769836Y-105956264D01*
X81214657Y-106477586D01*
X80975588Y-106990271D01*
X80984225Y-107306381D01*
X81052629Y-107494319D01*
X81249204Y-107742025D01*
X81223639Y-107964165D01*
X81292043Y-108152104D01*
X81454416Y-108305840D01*
X81428851Y-108527981D01*
X81531457Y-108809889D01*
X81693830Y-108963625D01*
X82112546Y-109236896D01*
X83095078Y-109304955D01*
X84009205Y-109185076D01*
X84795161Y-109005429D01*
X85452946Y-108766015D01*
X85350340Y-108484107D01*
X84786524Y-108689319D01*
X84000568Y-108868966D01*
X83086441Y-108988845D01*
X82548190Y-108971917D01*
X82069707Y-108826817D01*
X81813365Y-108707283D01*
X81744961Y-108519344D01*
X82223444Y-108664444D01*
X82761694Y-108681372D01*
X83009400Y-108484797D01*
X82701582Y-107639074D01*
X82291503Y-107681913D01*
G36*
X85041831Y-105297444D02*
G01*
X84998993Y-104887365D01*
X84802417Y-104639659D01*
X84640044Y-104485922D01*
X84383702Y-104366388D01*
X84161561Y-104340823D01*
X84127359Y-104246853D01*
X84246893Y-103990511D01*
X84494599Y-103793935D01*
X84588569Y-103759733D01*
X84648336Y-103631562D01*
X84614134Y-103537593D01*
X84485962Y-103477826D01*
X84204055Y-103580432D01*
X83896582Y-103905178D01*
X83777047Y-104161521D01*
X83785684Y-104477631D01*
X83537978Y-104674206D01*
X83358676Y-105058720D01*
X83401515Y-105468799D01*
X83632293Y-105810474D01*
X84016806Y-105989776D01*
X84426885Y-105946937D01*
X84862530Y-105681957D01*
X85041831Y-105297444D01*
G37*
X85041831Y-105297444D02*
X84998993Y-104887365D01*
X84802417Y-104639659D01*
X84640044Y-104485922D01*
X84383702Y-104366388D01*
X84161561Y-104340823D01*
X84127359Y-104246853D01*
X84246893Y-103990511D01*
X84494599Y-103793935D01*
X84588569Y-103759733D01*
X84648336Y-103631562D01*
X84614134Y-103537593D01*
X84485962Y-103477826D01*
X84204055Y-103580432D01*
X83896582Y-103905178D01*
X83777047Y-104161521D01*
X83785684Y-104477631D01*
X83537978Y-104674206D01*
X83358676Y-105058720D01*
X83401515Y-105468799D01*
X83632293Y-105810474D01*
X84016806Y-105989776D01*
X84426885Y-105946937D01*
X84862530Y-105681957D01*
X85041831Y-105297444D01*
D13*
%TO.C,J5*%
X124118135Y-110690544D02*
X122887125Y-110473484D01*
X124335195Y-109459534D02*
X124118135Y-110690544D01*
X120358590Y-106615801D02*
X120850994Y-106702626D01*
X120868359Y-106604145D02*
X120375955Y-106517321D01*
X120833629Y-106801106D02*
X120868359Y-106604145D01*
X120341226Y-106714282D02*
X120833629Y-106801106D01*
X122367165Y-103862762D02*
X122261240Y-104463495D01*
X123647415Y-104088505D02*
X123541490Y-104689237D01*
X121304439Y-109889785D02*
X121410364Y-109289053D01*
X122584689Y-110115528D02*
X122690614Y-109514795D01*
X123892242Y-106731166D02*
X124492974Y-106837092D01*
X124230856Y-104810791D02*
X123892242Y-106731166D01*
X120784028Y-104203022D02*
X124230856Y-104810791D01*
X119933152Y-109028580D02*
X120784028Y-104203022D01*
X123379979Y-109636349D02*
X119933152Y-109028580D01*
X123718593Y-107715974D02*
X123379979Y-109636349D01*
X124319326Y-107821899D02*
X123718593Y-107715974D01*
X124278888Y-108627110D02*
X124226794Y-108922553D01*
X124325275Y-108939917D02*
X124128313Y-108905188D01*
X124377369Y-108644475D02*
X124325275Y-108939917D01*
X124180408Y-108609746D02*
X124377369Y-108644475D01*
X124937514Y-104315984D02*
X123874787Y-110343007D01*
X120289221Y-103496364D02*
X124937514Y-104315984D01*
X119226494Y-109523388D02*
X120289221Y-103496364D01*
X123874787Y-110343007D02*
X119226494Y-109523388D01*
%TO.C,J4*%
X74702246Y-104072251D02*
X75933256Y-103855191D01*
X74919306Y-105303261D02*
X74702246Y-104072251D01*
X79628706Y-106615417D02*
X79136302Y-106702241D01*
X79153667Y-106800722D02*
X79646071Y-106713898D01*
X79118937Y-106603760D02*
X79153667Y-106800722D01*
X79611341Y-106516936D02*
X79118937Y-106603760D01*
X78682858Y-109889401D02*
X78576932Y-109288668D01*
X77402608Y-110115144D02*
X77296682Y-109514411D01*
X77620131Y-103862377D02*
X77726056Y-104463110D01*
X76339881Y-104088120D02*
X76445806Y-104688853D01*
X76268703Y-107715589D02*
X75667970Y-107821515D01*
X76607317Y-109635965D02*
X76268703Y-107715589D01*
X80054144Y-109028196D02*
X76607317Y-109635965D01*
X79203268Y-104202638D02*
X80054144Y-109028196D01*
X75756441Y-104810407D02*
X79203268Y-104202638D01*
X76095055Y-106730782D02*
X75756441Y-104810407D01*
X75494322Y-106836707D02*
X76095055Y-106730782D01*
X75256923Y-106066226D02*
X75204828Y-105770783D01*
X75106348Y-105788148D02*
X75303309Y-105753419D01*
X75158442Y-106083591D02*
X75106348Y-105788148D01*
X75355404Y-106048861D02*
X75158442Y-106083591D01*
X76112510Y-110342623D02*
X75049783Y-104315599D01*
X80760802Y-109523003D02*
X76112510Y-110342623D01*
X79698075Y-103495980D02*
X80760802Y-109523003D01*
X75049783Y-104315599D02*
X79698075Y-103495980D01*
%TO.C,J1*%
X87306777Y-79769233D02*
X88190660Y-80653116D01*
X86422893Y-80653116D02*
X87306777Y-79769233D01*
X85220812Y-88091880D02*
X84867258Y-87738326D01*
X84796548Y-87809037D02*
X85150101Y-88162590D01*
X84937969Y-87667615D02*
X84796548Y-87809037D01*
X85291522Y-88021169D02*
X84937969Y-87667615D01*
X86635025Y-86677666D02*
X86281472Y-86324113D01*
X86210761Y-86394823D02*
X86564315Y-86748377D01*
X86352183Y-86253402D02*
X86210761Y-86394823D01*
X86705736Y-86606955D02*
X86352183Y-86253402D01*
X88049239Y-85263452D02*
X87695685Y-84909899D01*
X87624975Y-84980610D02*
X87978528Y-85334163D01*
X87766396Y-84839188D02*
X87624975Y-84980610D01*
X88119949Y-85192742D02*
X87766396Y-84839188D01*
X81996405Y-89194966D02*
X82427740Y-88763631D01*
X81077166Y-88275727D02*
X81508501Y-87844392D01*
X89152325Y-82039045D02*
X88720990Y-82470381D01*
X88233087Y-81119807D02*
X87801751Y-81551142D01*
X82392385Y-85970559D02*
X81961049Y-85539224D01*
X81013526Y-87349417D02*
X82392385Y-85970559D01*
X83488400Y-89824291D02*
X81013526Y-87349417D01*
X89781650Y-83531041D02*
X83488400Y-89824291D01*
X87306777Y-81056167D02*
X89781650Y-83531041D01*
X85927918Y-82435025D02*
X87306777Y-81056167D01*
X85496583Y-82003690D02*
X85927918Y-82435025D01*
X85991558Y-81367294D02*
X86203690Y-81155162D01*
X86132979Y-81084451D02*
X86274401Y-81225873D01*
X85920847Y-81296583D02*
X86132979Y-81084451D01*
X86062269Y-81438005D02*
X85920847Y-81296583D01*
X80150856Y-87349417D02*
X87306777Y-80193497D01*
X83488400Y-90686961D02*
X80150856Y-87349417D01*
X90644321Y-83531041D02*
X83488400Y-90686961D01*
X87306777Y-80193497D02*
X90644321Y-83531041D01*
%TO.C,J5*%
D11*
X118718583Y-103576637D02*
X119422017Y-103700672D01*
X119570973Y-103678583D01*
X119681302Y-103601330D01*
X119753004Y-103468912D01*
X119769542Y-103375121D01*
X118553204Y-104514549D02*
X118635893Y-104045593D01*
X119113118Y-104081387D01*
X119057954Y-104120014D01*
X118994520Y-104205536D01*
X118953175Y-104440014D01*
X118983533Y-104542074D01*
X119022160Y-104597239D01*
X119107682Y-104660672D01*
X119342160Y-104702017D01*
X119444220Y-104671660D01*
X119499385Y-104633033D01*
X119562818Y-104547511D01*
X119604163Y-104313033D01*
X119573805Y-104210972D01*
X119535179Y-104155808D01*
%TO.C,J4*%
X77233176Y-102402817D02*
X77357210Y-103106251D01*
X77428913Y-103238669D01*
X77539242Y-103315923D01*
X77688198Y-103338011D01*
X77781989Y-103321473D01*
X76400042Y-102888197D02*
X76515807Y-103544735D01*
X76568368Y-102471687D02*
X76926881Y-103133776D01*
X76317238Y-103241273D01*
%TO.C,J1*%
X90448477Y-84377073D02*
X90953553Y-84882149D01*
X91088240Y-84949493D01*
X91222927Y-84949493D01*
X91357614Y-84882149D01*
X91424957Y-84814806D01*
X90448477Y-85791287D02*
X90852538Y-85387226D01*
X90650507Y-85589256D02*
X89943400Y-84882149D01*
X90111759Y-84915821D01*
X90246446Y-84915821D01*
X90347461Y-84882149D01*
%TD*%
M02*
