%FSLAX45Y45*%
G04 Gerber Fmt 4.5, Leading zero omitted, Abs format (unit mm)*
G04 Created by KiCad (PCBNEW (5.1.9-0-10_14)) date 2021-09-12 17:27:03*
%MOMM*%
%LPD*%
G01*
G04 APERTURE LIST*
%TA.AperFunction,Profile*%
%ADD10C,0.200000*%
%TD*%
%ADD11C,0.200000*%
%ADD12C,0.300000*%
G04 APERTURE END LIST*
D10*
X7727861Y-11099027D02*
G75*
G02*
X7580000Y-11000000I-26782J119912D01*
G01*
X12420000Y-11020000D02*
G75*
G02*
X12304542Y-11100949I-100885J21078D01*
G01*
X12420000Y-11020000D02*
X12520000Y-10400000D01*
X7580000Y-11000000D02*
X7481529Y-10399757D01*
X8090811Y-8797919D02*
X8107000Y-8815000D01*
X8274130Y-8981238D02*
X8107000Y-8815000D01*
X9253190Y-8362235D02*
G75*
G02*
X11516467Y-9030295I746811J-1637765D01*
G01*
X8090811Y-8797919D02*
G75*
G02*
X8090811Y-8656498I70711J70711D01*
G01*
X8656497Y-8090812D02*
G75*
G02*
X8797918Y-8090812I70711J-70711D01*
G01*
X8274130Y-8981238D02*
G75*
G02*
X8255623Y-9280431I-141421J-141421D01*
G01*
X9253190Y-8362235D02*
G75*
G02*
X9028789Y-8321682I-82979J181974D01*
G01*
X8656497Y-8090812D02*
X8090811Y-8656498D01*
X9028789Y-8321682D02*
X8797918Y-8090812D01*
X11816778Y-9331839D02*
G75*
G02*
X11516467Y-9030295I542171J840268D01*
G01*
X8255623Y-9280431D02*
G75*
G02*
X8183222Y-9331839I-614572J788861D01*
G01*
X11388501Y-11145455D02*
G75*
G02*
X11697056Y-11000000I308556J-254545D01*
G01*
X8302944Y-11000000D02*
G75*
G02*
X8611499Y-11145455I0J-400000D01*
G01*
X11388501Y-11145455D02*
G75*
G02*
X8611499Y-11145455I-1388501J1145455D01*
G01*
X11697056Y-11000000D02*
X12304542Y-11100949D01*
X7727861Y-11099027D02*
X8302944Y-11000000D01*
X7450000Y-10000000D02*
G75*
G02*
X7613903Y-9699184I358000J0D01*
G01*
X12387196Y-9697482D02*
G75*
G02*
X12551470Y-10019999I-195196J-302518D01*
G01*
X7481529Y-10399757D02*
G75*
G02*
X7450000Y-10000000I2518471J399757D01*
G01*
X12551470Y-10019999D02*
G75*
G02*
X12520000Y-10400000I-2551470J19999D01*
G01*
X11816778Y-9331839D02*
X12387196Y-9697482D01*
X7613903Y-9699184D02*
X8183222Y-9331839D01*
X12342000Y-10000000D02*
G75*
G03*
X12342000Y-10000000I-150000J0D01*
G01*
X7958000Y-10000000D02*
G75*
G03*
X7958000Y-10000000I-150000J0D01*
G01*
D11*
X7615000Y-10290000D02*
X7655000Y-10330000D01*
X7655000Y-10290000D02*
X7615000Y-10330000D01*
X8160000Y-10850000D02*
X8200000Y-10890000D01*
X8200000Y-10850000D02*
X8160000Y-10890000D01*
X8510000Y-9175000D02*
X8550000Y-9215000D01*
X8550000Y-9175000D02*
X8510000Y-9215000D01*
X8590000Y-10375000D02*
X8630000Y-10415000D01*
X8630000Y-10375000D02*
X8590000Y-10415000D01*
X8735000Y-10850000D02*
X8775000Y-10890000D01*
X8775000Y-10850000D02*
X8735000Y-10890000D01*
X8780000Y-9720000D02*
X8820000Y-9760000D01*
X8820000Y-9720000D02*
X8780000Y-9760000D01*
X9060000Y-8440000D02*
X9100000Y-8480000D01*
X9100000Y-8440000D02*
X9060000Y-8480000D01*
X9280000Y-8620000D02*
X9320000Y-8660000D01*
X9320000Y-8620000D02*
X9280000Y-8660000D01*
X9425000Y-11270000D02*
X9465000Y-11310000D01*
X9465000Y-11270000D02*
X9425000Y-11310000D01*
X9425000Y-11565000D02*
X9465000Y-11605000D01*
X9465000Y-11565000D02*
X9425000Y-11605000D01*
X9499999Y-8350000D02*
X9539999Y-8390000D01*
X9539999Y-8350000D02*
X9499999Y-8390000D01*
X9629999Y-8817501D02*
X9669999Y-8857501D01*
X9669999Y-8817501D02*
X9629999Y-8857501D01*
X9780000Y-8900000D02*
X9820000Y-8940000D01*
X9820000Y-8900000D02*
X9780000Y-8940000D01*
X9930000Y-9020000D02*
X9970000Y-9060000D01*
X9970000Y-9020000D02*
X9930000Y-9060000D01*
X10000000Y-8500000D02*
X10040000Y-8540000D01*
X10040000Y-8500000D02*
X10000000Y-8540000D01*
X10060000Y-11260000D02*
X10100000Y-11300000D01*
X10100000Y-11260000D02*
X10060000Y-11300000D01*
X10155000Y-9085000D02*
X10195000Y-9125000D01*
X10195000Y-9085000D02*
X10155000Y-9125000D01*
X10189999Y-8350000D02*
X10229999Y-8390000D01*
X10229999Y-8350000D02*
X10189999Y-8390000D01*
X10265938Y-8943825D02*
X10305938Y-8983825D01*
X10305938Y-8943825D02*
X10265938Y-8983825D01*
X10340000Y-10655000D02*
X10380000Y-10695000D01*
X10380000Y-10655000D02*
X10340000Y-10695000D01*
X10520000Y-11570000D02*
X10560000Y-11610000D01*
X10560000Y-11570000D02*
X10520000Y-11610000D01*
X10540000Y-10720000D02*
X10580000Y-10760000D01*
X10580000Y-10720000D02*
X10540000Y-10760000D01*
X10630000Y-8875000D02*
X10670000Y-8915000D01*
X10670000Y-8875000D02*
X10630000Y-8915000D01*
X10790000Y-11230000D02*
X10830000Y-11270000D01*
X10830000Y-11230000D02*
X10790000Y-11270000D01*
X10835000Y-8530000D02*
X10875000Y-8570000D01*
X10875000Y-8530000D02*
X10835000Y-8570000D01*
X11020000Y-10520000D02*
X11060000Y-10560000D01*
X11060000Y-10520000D02*
X11020000Y-10560000D01*
X11370000Y-10790000D02*
X11410000Y-10830000D01*
X11410000Y-10790000D02*
X11370000Y-10830000D01*
X11640000Y-9360000D02*
X11680000Y-9400000D01*
X11680000Y-9360000D02*
X11640000Y-9400000D01*
X11925000Y-10560000D02*
X11965000Y-10600000D01*
X11965000Y-10560000D02*
X11925000Y-10600000D01*
X11925000Y-10900000D02*
X11965000Y-10940000D01*
X11965000Y-10900000D02*
X11925000Y-10940000D01*
X7756500Y-10603000D02*
G75*
G03*
X7756500Y-10603000I-37500J0D01*
G01*
X7791230Y-10799962D02*
G75*
G03*
X7791230Y-10799962I-37500J0D01*
G01*
X8326236Y-8717264D02*
G75*
G03*
X8326236Y-8717264I-37500J0D01*
G01*
X8372500Y-9604000D02*
G75*
G03*
X8372500Y-9604000I-37500J0D01*
G01*
X8372500Y-9804000D02*
G75*
G03*
X8372500Y-9804000I-37500J0D01*
G01*
X8372500Y-10004000D02*
G75*
G03*
X8372500Y-10004000I-37500J0D01*
G01*
X8467657Y-8575843D02*
G75*
G03*
X8467657Y-8575843I-37500J0D01*
G01*
X8609079Y-8434421D02*
G75*
G03*
X8609079Y-8434421I-37500J0D01*
G01*
X8750500Y-8293000D02*
G75*
G03*
X8750500Y-8293000I-37500J0D01*
G01*
X10379500Y-11140000D02*
G75*
G03*
X10379500Y-11140000I-37500J0D01*
G01*
X10379500Y-11340000D02*
G75*
G03*
X10379500Y-11340000I-37500J0D01*
G01*
X11008500Y-10868000D02*
G75*
G03*
X11008500Y-10868000I-37500J0D01*
G01*
X11208500Y-10868000D02*
G75*
G03*
X11208500Y-10868000I-37500J0D01*
G01*
X11682500Y-9600000D02*
G75*
G03*
X11682500Y-9600000I-37500J0D01*
G01*
X11682500Y-9800000D02*
G75*
G03*
X11682500Y-9800000I-37500J0D01*
G01*
X11682500Y-10000000D02*
G75*
G03*
X11682500Y-10000000I-37500J0D01*
G01*
X12282500Y-10800000D02*
G75*
G03*
X12282500Y-10800000I-37500J0D01*
G01*
X12317230Y-10603038D02*
G75*
G03*
X12317230Y-10603038I-37500J0D01*
G01*
X9088000Y-10048000D02*
X9088000Y-10150000D01*
X9037000Y-10099000D02*
X9139000Y-10099000D01*
X9088000Y-10348000D02*
X9088000Y-10450000D01*
X9037000Y-10399000D02*
X9139000Y-10399000D01*
X9388000Y-10048000D02*
X9388000Y-10150000D01*
X9337000Y-10099000D02*
X9439000Y-10099000D01*
X9388000Y-10348000D02*
X9388000Y-10450000D01*
X9337000Y-10399000D02*
X9439000Y-10399000D01*
X9626000Y-11022000D02*
X9626000Y-11124000D01*
X9575000Y-11073000D02*
X9677000Y-11073000D01*
X9688000Y-10048000D02*
X9688000Y-10150000D01*
X9637000Y-10099000D02*
X9739000Y-10099000D01*
X9688000Y-10348000D02*
X9688000Y-10450000D01*
X9637000Y-10399000D02*
X9739000Y-10399000D01*
X9920488Y-11079243D02*
X9920488Y-11181243D01*
X9869488Y-11130243D02*
X9971488Y-11130243D01*
X9988000Y-10048000D02*
X9988000Y-10150000D01*
X9937000Y-10099000D02*
X10039000Y-10099000D01*
X9988000Y-10348000D02*
X9988000Y-10450000D01*
X9937000Y-10399000D02*
X10039000Y-10399000D01*
X10288000Y-10048000D02*
X10288000Y-10150000D01*
X10237000Y-10099000D02*
X10339000Y-10099000D01*
X10288000Y-10348000D02*
X10288000Y-10450000D01*
X10237000Y-10399000D02*
X10339000Y-10399000D01*
X10588000Y-10048000D02*
X10588000Y-10150000D01*
X10537000Y-10099000D02*
X10639000Y-10099000D01*
X10588000Y-10348000D02*
X10588000Y-10450000D01*
X10537000Y-10399000D02*
X10639000Y-10399000D01*
X10888000Y-10048000D02*
X10888000Y-10150000D01*
X10837000Y-10099000D02*
X10939000Y-10099000D01*
X10888000Y-10348000D02*
X10888000Y-10450000D01*
X10837000Y-10399000D02*
X10939000Y-10399000D01*
D12*
X7726428Y-12275714D02*
X7726428Y-11975714D01*
X7797857Y-11975714D01*
X7840714Y-11990000D01*
X7869286Y-12018571D01*
X7883571Y-12047143D01*
X7897857Y-12104286D01*
X7897857Y-12147143D01*
X7883571Y-12204286D01*
X7869286Y-12232857D01*
X7840714Y-12261429D01*
X7797857Y-12275714D01*
X7726428Y-12275714D01*
X8026428Y-12275714D02*
X8026428Y-12075714D01*
X8026428Y-12132857D02*
X8040714Y-12104286D01*
X8055000Y-12090000D01*
X8083571Y-12075714D01*
X8112143Y-12075714D01*
X8212143Y-12275714D02*
X8212143Y-12075714D01*
X8212143Y-11975714D02*
X8197857Y-11990000D01*
X8212143Y-12004286D01*
X8226428Y-11990000D01*
X8212143Y-11975714D01*
X8212143Y-12004286D01*
X8397857Y-12275714D02*
X8369286Y-12261429D01*
X8355000Y-12232857D01*
X8355000Y-11975714D01*
X8555000Y-12275714D02*
X8526428Y-12261429D01*
X8512143Y-12232857D01*
X8512143Y-11975714D01*
X8897857Y-12275714D02*
X8897857Y-11975714D01*
X8997857Y-12190000D01*
X9097857Y-11975714D01*
X9097857Y-12275714D01*
X9369286Y-12275714D02*
X9369286Y-12118571D01*
X9355000Y-12090000D01*
X9326428Y-12075714D01*
X9269286Y-12075714D01*
X9240714Y-12090000D01*
X9369286Y-12261429D02*
X9340714Y-12275714D01*
X9269286Y-12275714D01*
X9240714Y-12261429D01*
X9226428Y-12232857D01*
X9226428Y-12204286D01*
X9240714Y-12175714D01*
X9269286Y-12161429D01*
X9340714Y-12161429D01*
X9369286Y-12147143D01*
X9512143Y-12075714D02*
X9512143Y-12375714D01*
X9512143Y-12090000D02*
X9540714Y-12075714D01*
X9597857Y-12075714D01*
X9626428Y-12090000D01*
X9640714Y-12104286D01*
X9655000Y-12132857D01*
X9655000Y-12218571D01*
X9640714Y-12247143D01*
X9626428Y-12261429D01*
X9597857Y-12275714D01*
X9540714Y-12275714D01*
X9512143Y-12261429D01*
X9783571Y-12247143D02*
X9797857Y-12261429D01*
X9783571Y-12275714D01*
X9769286Y-12261429D01*
X9783571Y-12247143D01*
X9783571Y-12275714D01*
X9783571Y-12090000D02*
X9797857Y-12104286D01*
X9783571Y-12118571D01*
X9769286Y-12104286D01*
X9783571Y-12090000D01*
X9783571Y-12118571D01*
X7400000Y-12750000D02*
X7440000Y-12790000D01*
X7440000Y-12750000D02*
X7400000Y-12790000D01*
X7783571Y-12605714D02*
X7812143Y-12605714D01*
X7840714Y-12620000D01*
X7855000Y-12634286D01*
X7869286Y-12662857D01*
X7883571Y-12720000D01*
X7883571Y-12791429D01*
X7869286Y-12848571D01*
X7855000Y-12877143D01*
X7840714Y-12891429D01*
X7812143Y-12905714D01*
X7783571Y-12905714D01*
X7755000Y-12891429D01*
X7740714Y-12877143D01*
X7726428Y-12848571D01*
X7712143Y-12791429D01*
X7712143Y-12720000D01*
X7726428Y-12662857D01*
X7740714Y-12634286D01*
X7755000Y-12620000D01*
X7783571Y-12605714D01*
X8012143Y-12877143D02*
X8026428Y-12891429D01*
X8012143Y-12905714D01*
X7997857Y-12891429D01*
X8012143Y-12877143D01*
X8012143Y-12905714D01*
X8283571Y-12705714D02*
X8283571Y-12905714D01*
X8212143Y-12591429D02*
X8140714Y-12805714D01*
X8326428Y-12805714D01*
X8497857Y-12605714D02*
X8526428Y-12605714D01*
X8555000Y-12620000D01*
X8569286Y-12634286D01*
X8583571Y-12662857D01*
X8597857Y-12720000D01*
X8597857Y-12791429D01*
X8583571Y-12848571D01*
X8569286Y-12877143D01*
X8555000Y-12891429D01*
X8526428Y-12905714D01*
X8497857Y-12905714D01*
X8469286Y-12891429D01*
X8455000Y-12877143D01*
X8440714Y-12848571D01*
X8426428Y-12791429D01*
X8426428Y-12720000D01*
X8440714Y-12662857D01*
X8455000Y-12634286D01*
X8469286Y-12620000D01*
X8497857Y-12605714D01*
X8726428Y-12905714D02*
X8726428Y-12705714D01*
X8726428Y-12734286D02*
X8740714Y-12720000D01*
X8769286Y-12705714D01*
X8812143Y-12705714D01*
X8840714Y-12720000D01*
X8855000Y-12748571D01*
X8855000Y-12905714D01*
X8855000Y-12748571D02*
X8869286Y-12720000D01*
X8897857Y-12705714D01*
X8940714Y-12705714D01*
X8969286Y-12720000D01*
X8983571Y-12748571D01*
X8983571Y-12905714D01*
X9126428Y-12905714D02*
X9126428Y-12705714D01*
X9126428Y-12734286D02*
X9140714Y-12720000D01*
X9169286Y-12705714D01*
X9212143Y-12705714D01*
X9240714Y-12720000D01*
X9255000Y-12748571D01*
X9255000Y-12905714D01*
X9255000Y-12748571D02*
X9269286Y-12720000D01*
X9297857Y-12705714D01*
X9340714Y-12705714D01*
X9369286Y-12720000D01*
X9383571Y-12748571D01*
X9383571Y-12905714D01*
X9969286Y-12591429D02*
X9712143Y-12977143D01*
X10355000Y-12605714D02*
X10383571Y-12605714D01*
X10412143Y-12620000D01*
X10426428Y-12634286D01*
X10440714Y-12662857D01*
X10455000Y-12720000D01*
X10455000Y-12791429D01*
X10440714Y-12848571D01*
X10426428Y-12877143D01*
X10412143Y-12891429D01*
X10383571Y-12905714D01*
X10355000Y-12905714D01*
X10326428Y-12891429D01*
X10312143Y-12877143D01*
X10297857Y-12848571D01*
X10283571Y-12791429D01*
X10283571Y-12720000D01*
X10297857Y-12662857D01*
X10312143Y-12634286D01*
X10326428Y-12620000D01*
X10355000Y-12605714D01*
X10583571Y-12877143D02*
X10597857Y-12891429D01*
X10583571Y-12905714D01*
X10569286Y-12891429D01*
X10583571Y-12877143D01*
X10583571Y-12905714D01*
X10783571Y-12605714D02*
X10812143Y-12605714D01*
X10840714Y-12620000D01*
X10855000Y-12634286D01*
X10869286Y-12662857D01*
X10883571Y-12720000D01*
X10883571Y-12791429D01*
X10869286Y-12848571D01*
X10855000Y-12877143D01*
X10840714Y-12891429D01*
X10812143Y-12905714D01*
X10783571Y-12905714D01*
X10755000Y-12891429D01*
X10740714Y-12877143D01*
X10726428Y-12848571D01*
X10712143Y-12791429D01*
X10712143Y-12720000D01*
X10726428Y-12662857D01*
X10740714Y-12634286D01*
X10755000Y-12620000D01*
X10783571Y-12605714D01*
X11169286Y-12905714D02*
X10997857Y-12905714D01*
X11083571Y-12905714D02*
X11083571Y-12605714D01*
X11055000Y-12648571D01*
X11026428Y-12677143D01*
X10997857Y-12691429D01*
X11426428Y-12605714D02*
X11369286Y-12605714D01*
X11340714Y-12620000D01*
X11326428Y-12634286D01*
X11297857Y-12677143D01*
X11283571Y-12734286D01*
X11283571Y-12848571D01*
X11297857Y-12877143D01*
X11312143Y-12891429D01*
X11340714Y-12905714D01*
X11397857Y-12905714D01*
X11426428Y-12891429D01*
X11440714Y-12877143D01*
X11455000Y-12848571D01*
X11455000Y-12777143D01*
X11440714Y-12748571D01*
X11426428Y-12734286D01*
X11397857Y-12720000D01*
X11340714Y-12720000D01*
X11312143Y-12734286D01*
X11297857Y-12748571D01*
X11283571Y-12777143D01*
X11569286Y-12605714D02*
X11569286Y-12662857D01*
X11683571Y-12605714D02*
X11683571Y-12662857D01*
X12126428Y-13020000D02*
X12112143Y-13005714D01*
X12083571Y-12962857D01*
X12069286Y-12934286D01*
X12055000Y-12891429D01*
X12040714Y-12820000D01*
X12040714Y-12762857D01*
X12055000Y-12691429D01*
X12069286Y-12648571D01*
X12083571Y-12620000D01*
X12112143Y-12577143D01*
X12126428Y-12562857D01*
X12212143Y-12605714D02*
X12397857Y-12605714D01*
X12297857Y-12720000D01*
X12340714Y-12720000D01*
X12369286Y-12734286D01*
X12383571Y-12748571D01*
X12397857Y-12777143D01*
X12397857Y-12848571D01*
X12383571Y-12877143D01*
X12369286Y-12891429D01*
X12340714Y-12905714D01*
X12255000Y-12905714D01*
X12226428Y-12891429D01*
X12212143Y-12877143D01*
X12583571Y-12605714D02*
X12612143Y-12605714D01*
X12640714Y-12620000D01*
X12655000Y-12634286D01*
X12669286Y-12662857D01*
X12683571Y-12720000D01*
X12683571Y-12791429D01*
X12669286Y-12848571D01*
X12655000Y-12877143D01*
X12640714Y-12891429D01*
X12612143Y-12905714D01*
X12583571Y-12905714D01*
X12555000Y-12891429D01*
X12540714Y-12877143D01*
X12526428Y-12848571D01*
X12512143Y-12791429D01*
X12512143Y-12720000D01*
X12526428Y-12662857D01*
X12540714Y-12634286D01*
X12555000Y-12620000D01*
X12583571Y-12605714D01*
X13040714Y-12905714D02*
X13040714Y-12605714D01*
X13169286Y-12905714D02*
X13169286Y-12748571D01*
X13155000Y-12720000D01*
X13126428Y-12705714D01*
X13083571Y-12705714D01*
X13055000Y-12720000D01*
X13040714Y-12734286D01*
X13355000Y-12905714D02*
X13326428Y-12891429D01*
X13312143Y-12877143D01*
X13297857Y-12848571D01*
X13297857Y-12762857D01*
X13312143Y-12734286D01*
X13326428Y-12720000D01*
X13355000Y-12705714D01*
X13397857Y-12705714D01*
X13426428Y-12720000D01*
X13440714Y-12734286D01*
X13455000Y-12762857D01*
X13455000Y-12848571D01*
X13440714Y-12877143D01*
X13426428Y-12891429D01*
X13397857Y-12905714D01*
X13355000Y-12905714D01*
X13626428Y-12905714D02*
X13597857Y-12891429D01*
X13583571Y-12862857D01*
X13583571Y-12605714D01*
X13855000Y-12891429D02*
X13826428Y-12905714D01*
X13769286Y-12905714D01*
X13740714Y-12891429D01*
X13726428Y-12862857D01*
X13726428Y-12748571D01*
X13740714Y-12720000D01*
X13769286Y-12705714D01*
X13826428Y-12705714D01*
X13855000Y-12720000D01*
X13869286Y-12748571D01*
X13869286Y-12777143D01*
X13726428Y-12805714D01*
X13983571Y-12891429D02*
X14012143Y-12905714D01*
X14069286Y-12905714D01*
X14097857Y-12891429D01*
X14112143Y-12862857D01*
X14112143Y-12848571D01*
X14097857Y-12820000D01*
X14069286Y-12805714D01*
X14026428Y-12805714D01*
X13997857Y-12791429D01*
X13983571Y-12762857D01*
X13983571Y-12748571D01*
X13997857Y-12720000D01*
X14026428Y-12705714D01*
X14069286Y-12705714D01*
X14097857Y-12720000D01*
X14212143Y-13020000D02*
X14226428Y-13005714D01*
X14255000Y-12962857D01*
X14269286Y-12934286D01*
X14283571Y-12891429D01*
X14297857Y-12820000D01*
X14297857Y-12762857D01*
X14283571Y-12691429D01*
X14269286Y-12648571D01*
X14255000Y-12620000D01*
X14226428Y-12577143D01*
X14212143Y-12562857D01*
X7440000Y-13166000D02*
G75*
G03*
X7440000Y-13166000I-37500J0D01*
G01*
X7783571Y-13001714D02*
X7812143Y-13001714D01*
X7840714Y-13016000D01*
X7855000Y-13030286D01*
X7869286Y-13058857D01*
X7883571Y-13116000D01*
X7883571Y-13187429D01*
X7869286Y-13244571D01*
X7855000Y-13273143D01*
X7840714Y-13287429D01*
X7812143Y-13301714D01*
X7783571Y-13301714D01*
X7755000Y-13287429D01*
X7740714Y-13273143D01*
X7726428Y-13244571D01*
X7712143Y-13187429D01*
X7712143Y-13116000D01*
X7726428Y-13058857D01*
X7740714Y-13030286D01*
X7755000Y-13016000D01*
X7783571Y-13001714D01*
X8012143Y-13273143D02*
X8026428Y-13287429D01*
X8012143Y-13301714D01*
X7997857Y-13287429D01*
X8012143Y-13273143D01*
X8012143Y-13301714D01*
X8126428Y-13001714D02*
X8326428Y-13001714D01*
X8197857Y-13301714D01*
X8583571Y-13001714D02*
X8440714Y-13001714D01*
X8426428Y-13144571D01*
X8440714Y-13130286D01*
X8469286Y-13116000D01*
X8540714Y-13116000D01*
X8569286Y-13130286D01*
X8583571Y-13144571D01*
X8597857Y-13173143D01*
X8597857Y-13244571D01*
X8583571Y-13273143D01*
X8569286Y-13287429D01*
X8540714Y-13301714D01*
X8469286Y-13301714D01*
X8440714Y-13287429D01*
X8426428Y-13273143D01*
X8726428Y-13301714D02*
X8726428Y-13101714D01*
X8726428Y-13130286D02*
X8740714Y-13116000D01*
X8769286Y-13101714D01*
X8812143Y-13101714D01*
X8840714Y-13116000D01*
X8855000Y-13144571D01*
X8855000Y-13301714D01*
X8855000Y-13144571D02*
X8869286Y-13116000D01*
X8897857Y-13101714D01*
X8940714Y-13101714D01*
X8969286Y-13116000D01*
X8983571Y-13144571D01*
X8983571Y-13301714D01*
X9126428Y-13301714D02*
X9126428Y-13101714D01*
X9126428Y-13130286D02*
X9140714Y-13116000D01*
X9169286Y-13101714D01*
X9212143Y-13101714D01*
X9240714Y-13116000D01*
X9255000Y-13144571D01*
X9255000Y-13301714D01*
X9255000Y-13144571D02*
X9269286Y-13116000D01*
X9297857Y-13101714D01*
X9340714Y-13101714D01*
X9369286Y-13116000D01*
X9383571Y-13144571D01*
X9383571Y-13301714D01*
X9969286Y-12987429D02*
X9712143Y-13373143D01*
X10355000Y-13001714D02*
X10383571Y-13001714D01*
X10412143Y-13016000D01*
X10426428Y-13030286D01*
X10440714Y-13058857D01*
X10455000Y-13116000D01*
X10455000Y-13187429D01*
X10440714Y-13244571D01*
X10426428Y-13273143D01*
X10412143Y-13287429D01*
X10383571Y-13301714D01*
X10355000Y-13301714D01*
X10326428Y-13287429D01*
X10312143Y-13273143D01*
X10297857Y-13244571D01*
X10283571Y-13187429D01*
X10283571Y-13116000D01*
X10297857Y-13058857D01*
X10312143Y-13030286D01*
X10326428Y-13016000D01*
X10355000Y-13001714D01*
X10583571Y-13273143D02*
X10597857Y-13287429D01*
X10583571Y-13301714D01*
X10569286Y-13287429D01*
X10583571Y-13273143D01*
X10583571Y-13301714D01*
X10783571Y-13001714D02*
X10812143Y-13001714D01*
X10840714Y-13016000D01*
X10855000Y-13030286D01*
X10869286Y-13058857D01*
X10883571Y-13116000D01*
X10883571Y-13187429D01*
X10869286Y-13244571D01*
X10855000Y-13273143D01*
X10840714Y-13287429D01*
X10812143Y-13301714D01*
X10783571Y-13301714D01*
X10755000Y-13287429D01*
X10740714Y-13273143D01*
X10726428Y-13244571D01*
X10712143Y-13187429D01*
X10712143Y-13116000D01*
X10726428Y-13058857D01*
X10740714Y-13030286D01*
X10755000Y-13016000D01*
X10783571Y-13001714D01*
X10983571Y-13001714D02*
X11169286Y-13001714D01*
X11069286Y-13116000D01*
X11112143Y-13116000D01*
X11140714Y-13130286D01*
X11155000Y-13144571D01*
X11169286Y-13173143D01*
X11169286Y-13244571D01*
X11155000Y-13273143D01*
X11140714Y-13287429D01*
X11112143Y-13301714D01*
X11026428Y-13301714D01*
X10997857Y-13287429D01*
X10983571Y-13273143D01*
X11355000Y-13001714D02*
X11383571Y-13001714D01*
X11412143Y-13016000D01*
X11426428Y-13030286D01*
X11440714Y-13058857D01*
X11455000Y-13116000D01*
X11455000Y-13187429D01*
X11440714Y-13244571D01*
X11426428Y-13273143D01*
X11412143Y-13287429D01*
X11383571Y-13301714D01*
X11355000Y-13301714D01*
X11326428Y-13287429D01*
X11312143Y-13273143D01*
X11297857Y-13244571D01*
X11283571Y-13187429D01*
X11283571Y-13116000D01*
X11297857Y-13058857D01*
X11312143Y-13030286D01*
X11326428Y-13016000D01*
X11355000Y-13001714D01*
X11569286Y-13001714D02*
X11569286Y-13058857D01*
X11683571Y-13001714D02*
X11683571Y-13058857D01*
X12126428Y-13416000D02*
X12112143Y-13401714D01*
X12083571Y-13358857D01*
X12069286Y-13330286D01*
X12055000Y-13287429D01*
X12040714Y-13216000D01*
X12040714Y-13158857D01*
X12055000Y-13087429D01*
X12069286Y-13044571D01*
X12083571Y-13016000D01*
X12112143Y-12973143D01*
X12126428Y-12958857D01*
X12397857Y-13301714D02*
X12226428Y-13301714D01*
X12312143Y-13301714D02*
X12312143Y-13001714D01*
X12283571Y-13044571D01*
X12255000Y-13073143D01*
X12226428Y-13087429D01*
X12569286Y-13130286D02*
X12540714Y-13116000D01*
X12526428Y-13101714D01*
X12512143Y-13073143D01*
X12512143Y-13058857D01*
X12526428Y-13030286D01*
X12540714Y-13016000D01*
X12569286Y-13001714D01*
X12626428Y-13001714D01*
X12655000Y-13016000D01*
X12669286Y-13030286D01*
X12683571Y-13058857D01*
X12683571Y-13073143D01*
X12669286Y-13101714D01*
X12655000Y-13116000D01*
X12626428Y-13130286D01*
X12569286Y-13130286D01*
X12540714Y-13144571D01*
X12526428Y-13158857D01*
X12512143Y-13187429D01*
X12512143Y-13244571D01*
X12526428Y-13273143D01*
X12540714Y-13287429D01*
X12569286Y-13301714D01*
X12626428Y-13301714D01*
X12655000Y-13287429D01*
X12669286Y-13273143D01*
X12683571Y-13244571D01*
X12683571Y-13187429D01*
X12669286Y-13158857D01*
X12655000Y-13144571D01*
X12626428Y-13130286D01*
X13040714Y-13301714D02*
X13040714Y-13001714D01*
X13169286Y-13301714D02*
X13169286Y-13144571D01*
X13155000Y-13116000D01*
X13126428Y-13101714D01*
X13083571Y-13101714D01*
X13055000Y-13116000D01*
X13040714Y-13130286D01*
X13355000Y-13301714D02*
X13326428Y-13287429D01*
X13312143Y-13273143D01*
X13297857Y-13244571D01*
X13297857Y-13158857D01*
X13312143Y-13130286D01*
X13326428Y-13116000D01*
X13355000Y-13101714D01*
X13397857Y-13101714D01*
X13426428Y-13116000D01*
X13440714Y-13130286D01*
X13455000Y-13158857D01*
X13455000Y-13244571D01*
X13440714Y-13273143D01*
X13426428Y-13287429D01*
X13397857Y-13301714D01*
X13355000Y-13301714D01*
X13626428Y-13301714D02*
X13597857Y-13287429D01*
X13583571Y-13258857D01*
X13583571Y-13001714D01*
X13855000Y-13287429D02*
X13826428Y-13301714D01*
X13769286Y-13301714D01*
X13740714Y-13287429D01*
X13726428Y-13258857D01*
X13726428Y-13144571D01*
X13740714Y-13116000D01*
X13769286Y-13101714D01*
X13826428Y-13101714D01*
X13855000Y-13116000D01*
X13869286Y-13144571D01*
X13869286Y-13173143D01*
X13726428Y-13201714D01*
X13983571Y-13287429D02*
X14012143Y-13301714D01*
X14069286Y-13301714D01*
X14097857Y-13287429D01*
X14112143Y-13258857D01*
X14112143Y-13244571D01*
X14097857Y-13216000D01*
X14069286Y-13201714D01*
X14026428Y-13201714D01*
X13997857Y-13187429D01*
X13983571Y-13158857D01*
X13983571Y-13144571D01*
X13997857Y-13116000D01*
X14026428Y-13101714D01*
X14069286Y-13101714D01*
X14097857Y-13116000D01*
X14212143Y-13416000D02*
X14226428Y-13401714D01*
X14255000Y-13358857D01*
X14269286Y-13330286D01*
X14283571Y-13287429D01*
X14297857Y-13216000D01*
X14297857Y-13158857D01*
X14283571Y-13087429D01*
X14269286Y-13044571D01*
X14255000Y-13016000D01*
X14226428Y-12973143D01*
X14212143Y-12958857D01*
X7389000Y-13511000D02*
X7389000Y-13613000D01*
X7338000Y-13562000D02*
X7440000Y-13562000D01*
X7883571Y-13697714D02*
X7712143Y-13697714D01*
X7797857Y-13697714D02*
X7797857Y-13397714D01*
X7769286Y-13440571D01*
X7740714Y-13469143D01*
X7712143Y-13483429D01*
X8012143Y-13669143D02*
X8026428Y-13683429D01*
X8012143Y-13697714D01*
X7997857Y-13683429D01*
X8012143Y-13669143D01*
X8012143Y-13697714D01*
X8212143Y-13397714D02*
X8240714Y-13397714D01*
X8269286Y-13412000D01*
X8283571Y-13426286D01*
X8297857Y-13454857D01*
X8312143Y-13512000D01*
X8312143Y-13583429D01*
X8297857Y-13640571D01*
X8283571Y-13669143D01*
X8269286Y-13683429D01*
X8240714Y-13697714D01*
X8212143Y-13697714D01*
X8183571Y-13683429D01*
X8169286Y-13669143D01*
X8155000Y-13640571D01*
X8140714Y-13583429D01*
X8140714Y-13512000D01*
X8155000Y-13454857D01*
X8169286Y-13426286D01*
X8183571Y-13412000D01*
X8212143Y-13397714D01*
X8426428Y-13426286D02*
X8440714Y-13412000D01*
X8469286Y-13397714D01*
X8540714Y-13397714D01*
X8569286Y-13412000D01*
X8583571Y-13426286D01*
X8597857Y-13454857D01*
X8597857Y-13483429D01*
X8583571Y-13526286D01*
X8412143Y-13697714D01*
X8597857Y-13697714D01*
X8726428Y-13697714D02*
X8726428Y-13497714D01*
X8726428Y-13526286D02*
X8740714Y-13512000D01*
X8769286Y-13497714D01*
X8812143Y-13497714D01*
X8840714Y-13512000D01*
X8855000Y-13540571D01*
X8855000Y-13697714D01*
X8855000Y-13540571D02*
X8869286Y-13512000D01*
X8897857Y-13497714D01*
X8940714Y-13497714D01*
X8969286Y-13512000D01*
X8983571Y-13540571D01*
X8983571Y-13697714D01*
X9126428Y-13697714D02*
X9126428Y-13497714D01*
X9126428Y-13526286D02*
X9140714Y-13512000D01*
X9169286Y-13497714D01*
X9212143Y-13497714D01*
X9240714Y-13512000D01*
X9255000Y-13540571D01*
X9255000Y-13697714D01*
X9255000Y-13540571D02*
X9269286Y-13512000D01*
X9297857Y-13497714D01*
X9340714Y-13497714D01*
X9369286Y-13512000D01*
X9383571Y-13540571D01*
X9383571Y-13697714D01*
X9969286Y-13383429D02*
X9712143Y-13769143D01*
X10355000Y-13397714D02*
X10383571Y-13397714D01*
X10412143Y-13412000D01*
X10426428Y-13426286D01*
X10440714Y-13454857D01*
X10455000Y-13512000D01*
X10455000Y-13583429D01*
X10440714Y-13640571D01*
X10426428Y-13669143D01*
X10412143Y-13683429D01*
X10383571Y-13697714D01*
X10355000Y-13697714D01*
X10326428Y-13683429D01*
X10312143Y-13669143D01*
X10297857Y-13640571D01*
X10283571Y-13583429D01*
X10283571Y-13512000D01*
X10297857Y-13454857D01*
X10312143Y-13426286D01*
X10326428Y-13412000D01*
X10355000Y-13397714D01*
X10583571Y-13669143D02*
X10597857Y-13683429D01*
X10583571Y-13697714D01*
X10569286Y-13683429D01*
X10583571Y-13669143D01*
X10583571Y-13697714D01*
X10783571Y-13397714D02*
X10812143Y-13397714D01*
X10840714Y-13412000D01*
X10855000Y-13426286D01*
X10869286Y-13454857D01*
X10883571Y-13512000D01*
X10883571Y-13583429D01*
X10869286Y-13640571D01*
X10855000Y-13669143D01*
X10840714Y-13683429D01*
X10812143Y-13697714D01*
X10783571Y-13697714D01*
X10755000Y-13683429D01*
X10740714Y-13669143D01*
X10726428Y-13640571D01*
X10712143Y-13583429D01*
X10712143Y-13512000D01*
X10726428Y-13454857D01*
X10740714Y-13426286D01*
X10755000Y-13412000D01*
X10783571Y-13397714D01*
X11140714Y-13497714D02*
X11140714Y-13697714D01*
X11069286Y-13383429D02*
X10997857Y-13597714D01*
X11183571Y-13597714D01*
X11355000Y-13397714D02*
X11383571Y-13397714D01*
X11412143Y-13412000D01*
X11426428Y-13426286D01*
X11440714Y-13454857D01*
X11455000Y-13512000D01*
X11455000Y-13583429D01*
X11440714Y-13640571D01*
X11426428Y-13669143D01*
X11412143Y-13683429D01*
X11383571Y-13697714D01*
X11355000Y-13697714D01*
X11326428Y-13683429D01*
X11312143Y-13669143D01*
X11297857Y-13640571D01*
X11283571Y-13583429D01*
X11283571Y-13512000D01*
X11297857Y-13454857D01*
X11312143Y-13426286D01*
X11326428Y-13412000D01*
X11355000Y-13397714D01*
X11569286Y-13397714D02*
X11569286Y-13454857D01*
X11683571Y-13397714D02*
X11683571Y-13454857D01*
X12126428Y-13812000D02*
X12112143Y-13797714D01*
X12083571Y-13754857D01*
X12069286Y-13726286D01*
X12055000Y-13683429D01*
X12040714Y-13612000D01*
X12040714Y-13554857D01*
X12055000Y-13483429D01*
X12069286Y-13440571D01*
X12083571Y-13412000D01*
X12112143Y-13369143D01*
X12126428Y-13354857D01*
X12397857Y-13697714D02*
X12226428Y-13697714D01*
X12312143Y-13697714D02*
X12312143Y-13397714D01*
X12283571Y-13440571D01*
X12255000Y-13469143D01*
X12226428Y-13483429D01*
X12655000Y-13397714D02*
X12597857Y-13397714D01*
X12569286Y-13412000D01*
X12555000Y-13426286D01*
X12526428Y-13469143D01*
X12512143Y-13526286D01*
X12512143Y-13640571D01*
X12526428Y-13669143D01*
X12540714Y-13683429D01*
X12569286Y-13697714D01*
X12626428Y-13697714D01*
X12655000Y-13683429D01*
X12669286Y-13669143D01*
X12683571Y-13640571D01*
X12683571Y-13569143D01*
X12669286Y-13540571D01*
X12655000Y-13526286D01*
X12626428Y-13512000D01*
X12569286Y-13512000D01*
X12540714Y-13526286D01*
X12526428Y-13540571D01*
X12512143Y-13569143D01*
X13040714Y-13697714D02*
X13040714Y-13397714D01*
X13169286Y-13697714D02*
X13169286Y-13540571D01*
X13155000Y-13512000D01*
X13126428Y-13497714D01*
X13083571Y-13497714D01*
X13055000Y-13512000D01*
X13040714Y-13526286D01*
X13355000Y-13697714D02*
X13326428Y-13683429D01*
X13312143Y-13669143D01*
X13297857Y-13640571D01*
X13297857Y-13554857D01*
X13312143Y-13526286D01*
X13326428Y-13512000D01*
X13355000Y-13497714D01*
X13397857Y-13497714D01*
X13426428Y-13512000D01*
X13440714Y-13526286D01*
X13455000Y-13554857D01*
X13455000Y-13640571D01*
X13440714Y-13669143D01*
X13426428Y-13683429D01*
X13397857Y-13697714D01*
X13355000Y-13697714D01*
X13626428Y-13697714D02*
X13597857Y-13683429D01*
X13583571Y-13654857D01*
X13583571Y-13397714D01*
X13855000Y-13683429D02*
X13826428Y-13697714D01*
X13769286Y-13697714D01*
X13740714Y-13683429D01*
X13726428Y-13654857D01*
X13726428Y-13540571D01*
X13740714Y-13512000D01*
X13769286Y-13497714D01*
X13826428Y-13497714D01*
X13855000Y-13512000D01*
X13869286Y-13540571D01*
X13869286Y-13569143D01*
X13726428Y-13597714D01*
X13983571Y-13683429D02*
X14012143Y-13697714D01*
X14069286Y-13697714D01*
X14097857Y-13683429D01*
X14112143Y-13654857D01*
X14112143Y-13640571D01*
X14097857Y-13612000D01*
X14069286Y-13597714D01*
X14026428Y-13597714D01*
X13997857Y-13583429D01*
X13983571Y-13554857D01*
X13983571Y-13540571D01*
X13997857Y-13512000D01*
X14026428Y-13497714D01*
X14069286Y-13497714D01*
X14097857Y-13512000D01*
X14212143Y-13812000D02*
X14226428Y-13797714D01*
X14255000Y-13754857D01*
X14269286Y-13726286D01*
X14283571Y-13683429D01*
X14297857Y-13612000D01*
X14297857Y-13554857D01*
X14283571Y-13483429D01*
X14269286Y-13440571D01*
X14255000Y-13412000D01*
X14226428Y-13369143D01*
X14212143Y-13354857D01*
M02*
